<svg version="1.1" xmlns="http://www.w3.org/2000/svg" viewBox="0 0 574.2858276367188 368.7143249511719" width="574.2858276367188" height="368.7143249511719">
  <!-- svg-source:excalidraw -->
  
  <defs>
    <style class="style-fonts">
      @font-face {
        font-family: "Virgil";
        src: url("https://excalidraw.com/Virgil.woff2");
      }
      @font-face {
        font-family: "Cascadia";
        src: url("https://excalidraw.com/Cascadia.woff2");
      }
    </style>
    
  </defs>
  <rect x="0" y="0" width="574.2858276367188" height="368.7143249511719" fill="#ffffff"></rect><g stroke-linecap="round" transform="translate(10 10) rotate(0 68.19620158815164 82.21430969238281)"><path d="M35.72 2.92 L109.11 -0.4 L127.43 2 L134.2 12.79 L135.02 31.01 L135.77 134.77 L131.79 146.26 L127.67 157.6 L104.51 162.88 L27.24 160.79 L11.47 159.42 L7.85 148.5 L1.96 130.13 L1.09 28.13 L9.02 9.96 L19.28 4.97 L35.91 3.27" stroke="none" stroke-width="0" fill="#fd7e14"></path><path d="M32 0 M32 0 C52.76 3, 76.9 2.91, 104.39 0 M32 0 C52.85 -1.76, 73.71 -1.31, 104.39 0 M104.39 0 C122.95 -2.75, 136.02 11.99, 136.39 32 M104.39 0 C129.99 -1.01, 133.96 7.2, 136.39 32 M136.39 32 C139.68 66.75, 140.41 102.75, 136.39 132.43 M136.39 32 C139.1 55.02, 138.12 76.51, 136.39 132.43 M136.39 132.43 C140.02 154.63, 128.9 161.07, 104.39 164.43 M136.39 132.43 C139.29 154.64, 123.75 167.93, 104.39 164.43 M104.39 164.43 C87.8 161.89, 71.66 165.88, 32 164.43 M104.39 164.43 C76.17 162.86, 49.07 161.69, 32 164.43 M32 164.43 C13.25 165.64, 1.54 151.94, 0 132.43 M32 164.43 C10.07 165.51, -0.65 149.76, 0 132.43 M0 132.43 C0.45 96.66, -1.84 68.73, 0 32 M0 132.43 C-1.8 103.25, -3.14 71.37, 0 32 M0 32 C-3.73 13.22, 10.91 1.48, 32 0 M0 32 C0.23 12.64, 15.07 1.43, 32 0" stroke="#1e1e1e" stroke-width="1" fill="none"></path></g><g transform="translate(39.95764567994854 77.05959822834916) rotate(0 38.238555908203125 15.154711464033653)"><text x="38.238555908203125" y="0" font-family="Virgil, Segoe UI Emoji" font-size="12.123769171226959px" fill="#1e1e1e" text-anchor="middle" style="white-space: pre;" direction="ltr" dominant-baseline="text-before-edge">Lightsteamer</text><text x="38.238555908203125" y="15.1547114640337" font-family="Virgil, Segoe UI Emoji" font-size="12.123769171226959px" fill="#1e1e1e" text-anchor="middle" style="white-space: pre;" direction="ltr" dominant-baseline="text-before-edge">Kernel</text></g><g stroke-linecap="round" transform="translate(125.39236577054754 98.11365389274124) rotate(0 56.83016799012637 32.2037618610716)"><path d="M13.32 -0.9 L101.1 -2.5 L109.68 2.56 L112.04 11.34 L113.04 50.65 L108.79 57.95 L111.15 59.82 L97.68 62.86 L18.84 61.26 L5.26 61.63 L3.61 48.65 L2.21 10.03 L6.88 5.89 L17.12 1.96" stroke="none" stroke-width="0" fill="#ffec99"></path><path d="M16.1 0 M16.1 0 C46.42 -1.42, 67.85 0.72, 97.56 0 M16.1 0 C39.84 -0.53, 59.22 1.6, 97.56 0 M97.56 0 C107.91 -0.71, 112.95 5.55, 113.66 16.1 M97.56 0 C105.1 -3.16, 113.23 6.89, 113.66 16.1 M113.66 16.1 C110.5 30.85, 114.16 37.42, 113.66 48.31 M113.66 16.1 C113.51 26.76, 114.64 40.34, 113.66 48.31 M113.66 48.31 C116.9 58.82, 109.56 60.92, 97.56 64.41 M113.66 48.31 C117.83 60.03, 111.94 60.54, 97.56 64.41 M97.56 64.41 C71.03 60.99, 40.33 64.59, 16.1 64.41 M97.56 64.41 C73.25 66.16, 47.39 62.95, 16.1 64.41 M16.1 64.41 C2.43 63.9, -3.64 56.19, 0 48.31 M16.1 64.41 C8.34 65.8, 1.77 56.95, 0 48.31 M0 48.31 C-3.63 40.47, -2.34 32.47, 0 16.1 M0 48.31 C2.16 39.16, 1.52 31.06, 0 16.1 M0 16.1 C-1.21 7.24, 1.47 -1.66, 16.1 0 M0 16.1 C-4.29 8.3, 5.64 1.7, 16.1 0" stroke="#1e1e1e" stroke-width="1" fill="none"></path></g><g transform="translate(132.59724384368172 115.16270428977919) rotate(0 49.62528991699219 15.154711464033653)"><text x="49.62528991699219" y="0" font-family="Virgil, Segoe UI Emoji" font-size="12.123769171226959px" fill="#1e1e1e" text-anchor="middle" style="white-space: pre;" direction="ltr" dominant-baseline="text-before-edge">Proxy Metadata</text><text x="49.62528991699219" y="15.1547114640337" font-family="Virgil, Segoe UI Emoji" font-size="12.123769171226959px" fill="#1e1e1e" text-anchor="middle" style="white-space: pre;" direction="ltr" dominant-baseline="text-before-edge">Adapter</text></g><g stroke-linecap="round" transform="translate(123.01079879410582 22.556678340718918) rotate(0 56.83016799012637 32.2037618610716)"><path d="M19.64 -2.5 L99.86 0.29 L106 1.28 L112.79 14.67 L111.06 48.14 L115.18 55.79 L107.49 60.59 L100.3 61.26 L15.07 63.9 L9.64 58.71 L2.21 49.78 L0.84 15.96 L7.31 4.23 L17.39 2.97" stroke="none" stroke-width="0" fill="#ffec99"></path><path d="M16.1 0 M16.1 0 C46.15 2.24, 79.65 3.77, 97.56 0 M16.1 0 C41.64 2.09, 68.22 -0.2, 97.56 0 M97.56 0 C107.58 0.19, 110.88 2.62, 113.66 16.1 M97.56 0 C107.87 1.52, 117.92 4.35, 113.66 16.1 M113.66 16.1 C113.82 20.1, 116.14 31.36, 113.66 48.31 M113.66 16.1 C114.73 28.88, 115.27 41.27, 113.66 48.31 M113.66 48.31 C114.93 55.55, 111.92 65.27, 97.56 64.41 M113.66 48.31 C117.31 55.18, 111.19 65.29, 97.56 64.41 M97.56 64.41 C78.54 64.18, 55.9 60.44, 16.1 64.41 M97.56 64.41 C70.89 63.72, 43.59 65.28, 16.1 64.41 M16.1 64.41 C1.72 61.56, 2.59 60.25, 0 48.31 M16.1 64.41 C7.14 62.31, -0.59 60.13, 0 48.31 M0 48.31 C-1.63 41.75, -0.08 27.79, 0 16.1 M0 48.31 C0.6 42.04, -1.19 34.64, 0 16.1 M0 16.1 C-3.9 3.7, 1.64 2.55, 16.1 0 M0 16.1 C0.28 7.07, 5.6 1.97, 16.1 0" stroke="#1e1e1e" stroke-width="1" fill="none"></path></g><g transform="translate(144.35970457720094 39.60572873775686) rotate(0 35.48126220703125 15.154711464033653)"><text x="35.48126220703125" y="0" font-family="Virgil, Segoe UI Emoji" font-size="12.123769171226959px" fill="#1e1e1e" text-anchor="middle" style="white-space: pre;" direction="ltr" dominant-baseline="text-before-edge">Proxy Data</text><text x="35.48126220703125" y="15.1547114640337" font-family="Virgil, Segoe UI Emoji" font-size="12.123769171226959px" fill="#1e1e1e" text-anchor="middle" style="white-space: pre;" direction="ltr" dominant-baseline="text-before-edge">Adapter</text></g><g stroke-linecap="round" transform="translate(10.285675048828125 194.28570556640625) rotate(0 68.19620158815164 82.21430969238281)"><path d="M30.42 1.14 L114.17 -0.85 L125.39 1.8 L131.06 13.55 L137.75 33.73 L137.76 131.25 L130.41 149.6 L125.74 160.71 L103.79 160.93 L21.95 165.79 L13.78 158.65 L1.4 151.05 L-0.68 133.38 L-2.71 24.26 L7.05 8.44 L15.58 -0.93 L29.87 0.56" stroke="none" stroke-width="0" fill="#fd7e14"></path><path d="M32 0 M32 0 C63.11 -1.23, 86.18 -2.56, 104.39 0 M32 0 C52.15 1.86, 72.6 -0.45, 104.39 0 M104.39 0 C125.67 1.19, 135.33 11.1, 136.39 32 M104.39 0 C124.59 -2.94, 136.48 6.47, 136.39 32 M136.39 32 C137.59 70.13, 132.65 111.3, 136.39 132.43 M136.39 32 C139.03 70.27, 138.89 106.23, 136.39 132.43 M136.39 132.43 C138.17 157.01, 122.71 162.36, 104.39 164.43 M136.39 132.43 C136.28 156.38, 129.27 168.3, 104.39 164.43 M104.39 164.43 C77.22 161.64, 54.45 162.03, 32 164.43 M104.39 164.43 C87.57 164.68, 69.02 165.18, 32 164.43 M32 164.43 C9.83 166.73, 1.68 154.11, 0 132.43 M32 164.43 C11.92 161.27, -3.63 154.73, 0 132.43 M0 132.43 C-0.68 94.79, -3.58 54.8, 0 32 M0 132.43 C-0.11 96.66, -2 59.29, 0 32 M0 32 C1.9 13.42, 9.33 -1.15, 32 0 M0 32 C0.92 10.19, 7.15 -0.88, 32 0" stroke="#1e1e1e" stroke-width="1" fill="none"></path></g><g transform="translate(40.243320728776666 261.3453037947554) rotate(0 38.238555908203125 15.154711464033653)"><text x="38.238555908203125" y="0" font-family="Virgil, Segoe UI Emoji" font-size="12.123769171226959px" fill="#1e1e1e" text-anchor="middle" style="white-space: pre;" direction="ltr" dominant-baseline="text-before-edge">Lightsteamer</text><text x="38.238555908203125" y="15.1547114640337" font-family="Virgil, Segoe UI Emoji" font-size="12.123769171226959px" fill="#1e1e1e" text-anchor="middle" style="white-space: pre;" direction="ltr" dominant-baseline="text-before-edge">Kernel</text></g><g stroke-linecap="round" transform="translate(125.67804081937567 282.3993594591475) rotate(0 56.83016799012637 32.2037618610716)"><path d="M18.38 -1.35 L99.06 -2.7 L106.54 3.31 L114.76 14.06 L115.03 47.12 L107.42 61.29 L109.22 62.92 L96.96 60.91 L13.56 66.27 L7.57 60.87 L-2.85 51.2 L-0.43 13.28 L3.08 2.02 L15.15 0.44" stroke="none" stroke-width="0" fill="#ffec99"></path><path d="M16.1 0 M16.1 0 C36.18 4.5, 57.62 1.95, 97.56 0 M16.1 0 C45.18 0.39, 74.56 0.01, 97.56 0 M97.56 0 C109.44 2.32, 116.57 3.06, 113.66 16.1 M97.56 0 C108.23 1.37, 112.44 5.87, 113.66 16.1 M113.66 16.1 C109.6 27.98, 112.43 35.76, 113.66 48.31 M113.66 16.1 C115.71 28.33, 115.61 39.15, 113.66 48.31 M113.66 48.31 C115.15 62.6, 109.51 66.89, 97.56 64.41 M113.66 48.31 C115.7 62.77, 104.82 62.03, 97.56 64.41 M97.56 64.41 C76.7 68.49, 52.56 65.1, 16.1 64.41 M97.56 64.41 C72.71 64.84, 49.24 67.01, 16.1 64.41 M16.1 64.41 C7.25 63.35, 0.31 58.97, 0 48.31 M16.1 64.41 C4.41 67.05, 1.94 59.44, 0 48.31 M0 48.31 C1.29 40.69, 3.75 27.25, 0 16.1 M0 48.31 C-1.33 39.08, 1.44 26.06, 0 16.1 M0 16.1 C2.63 6.44, 4.22 -1.08, 16.1 0 M0 16.1 C2.18 8.54, 3.83 -1.33, 16.1 0" stroke="#1e1e1e" stroke-width="1" fill="none"></path></g><g transform="translate(132.88291889250985 299.44840985618544) rotate(0 49.62528991699219 15.154711464033653)"><text x="49.62528991699219" y="0" font-family="Virgil, Segoe UI Emoji" font-size="12.123769171226959px" fill="#1e1e1e" text-anchor="middle" style="white-space: pre;" direction="ltr" dominant-baseline="text-before-edge">Proxy Metadata</text><text x="49.62528991699219" y="15.1547114640337" font-family="Virgil, Segoe UI Emoji" font-size="12.123769171226959px" fill="#1e1e1e" text-anchor="middle" style="white-space: pre;" direction="ltr" dominant-baseline="text-before-edge">Adapter</text></g><g stroke-linecap="round" transform="translate(123.29647384293395 206.84238390712517) rotate(0 56.83016799012637 32.2037618610716)"><path d="M17.6 -2.7 L96.73 1.05 L108.73 3.99 L114.78 11.15 L109.68 51.48 L113.25 58.9 L106.77 58.65 L95.01 66.27 L17.38 63.13 L3.19 61.27 L-0.43 53.03 L-2.96 12.08 L5.33 2.71 L13.68 -2.93" stroke="none" stroke-width="0" fill="#ffec99"></path><path d="M16.1 0 M16.1 0 C38.7 -0.4, 59.12 -2.32, 97.56 0 M16.1 0 C33.78 -0.49, 55.77 1.64, 97.56 0 M97.56 0 C111.2 -2.3, 113.61 6.56, 113.66 16.1 M97.56 0 C107.07 0.5, 112.53 2.42, 113.66 16.1 M113.66 16.1 C112.26 27.75, 114.68 36, 113.66 48.31 M113.66 16.1 C116.18 24.21, 115.04 31.84, 113.66 48.31 M113.66 48.31 C114.88 61.52, 110.07 67.65, 97.56 64.41 M113.66 48.31 C110.19 56.66, 108.18 67.02, 97.56 64.41 M97.56 64.41 C70.3 64.99, 35.79 62.98, 16.1 64.41 M97.56 64.41 C64.7 64.6, 34.4 62.99, 16.1 64.41 M16.1 64.41 C5.68 64.34, -0.83 61.34, 0 48.31 M16.1 64.41 C7.3 64.81, 1.25 55.89, 0 48.31 M0 48.31 C3.18 41.2, 0.85 33.89, 0 16.1 M0 48.31 C1.85 38.85, 1.75 32.6, 0 16.1 M0 16.1 C-1.15 4.29, 7.26 2.76, 16.1 0 M0 16.1 C-1.53 4.04, 6.29 -0.48, 16.1 0" stroke="#1e1e1e" stroke-width="1" fill="none"></path></g><g transform="translate(144.64537962602907 223.8914343041631) rotate(0 35.48126220703125 15.154711464033653)"><text x="35.48126220703125" y="0" font-family="Virgil, Segoe UI Emoji" font-size="12.123769171226959px" fill="#1e1e1e" text-anchor="middle" style="white-space: pre;" direction="ltr" dominant-baseline="text-before-edge">Proxy Data</text><text x="35.48126220703125" y="15.1547114640337" font-family="Virgil, Segoe UI Emoji" font-size="12.123769171226959px" fill="#1e1e1e" text-anchor="middle" style="white-space: pre;" direction="ltr" dominant-baseline="text-before-edge">Adapter</text></g><g stroke-linecap="round"><g transform="translate(246.09993726459305 56.243701374417014) rotate(0 55.53829662652231 31.451644865937737)"><path d="M-0.96 -0.69 C17.44 10.35, 93.43 55.54, 112.04 66.44 M3.72 -3.53 C21.56 6.68, 90.76 50.44, 109.56 62.32" stroke="#1e1e1e" stroke-width="1" fill="none"></path></g><g transform="translate(246.09993726459305 56.243701374417014) rotate(0 55.53829662652231 31.451644865937737)"><path d="M79.26 55.32 C93.08 55.82, 101.05 64.49, 107.24 62.44 M79.73 55.69 C89.67 56.36, 96.63 58.59, 109.85 64.13" stroke="#1e1e1e" stroke-width="1" fill="none"></path></g><g transform="translate(246.09993726459305 56.243701374417014) rotate(0 55.53829662652231 31.451644865937737)"><path d="M90.21 37.97 C100.14 44.6, 104.2 59.47, 107.24 62.44 M90.68 38.34 C98 43.36, 102.1 50.13, 109.85 64.13" stroke="#1e1e1e" stroke-width="1" fill="none"></path></g></g><mask></mask><g stroke-linecap="round"><g transform="translate(245.814292733343 231.926782367726) rotate(0 56.34411927805766 -42.00577919404941)"><path d="M1.7 -1.41 C20.6 -16.24, 94.61 -74.01, 113.51 -88 M-0.82 3.99 C17.78 -10.45, 92.58 -68.83, 111.83 -84.4" stroke="#1e1e1e" stroke-width="1" fill="none"></path></g><g transform="translate(245.814292733343 231.926782367726) rotate(0 56.34411927805766 -42.00577919404941)"><path d="M94.1 -57.37 C100.65 -63.1, 109.23 -73.82, 111.35 -82.61 M94.63 -58.93 C101.8 -67.08, 103.33 -74.07, 112.29 -85.27" stroke="#1e1e1e" stroke-width="1" fill="none"></path></g><g transform="translate(245.814292733343 231.926782367726) rotate(0 56.34411927805766 -42.00577919404941)"><path d="M81.35 -73.45 C91.9 -74.44, 104.36 -80.26, 111.35 -82.61 M81.89 -75.01 C92.64 -78.69, 97.64 -81.31, 112.29 -85.27" stroke="#1e1e1e" stroke-width="1" fill="none"></path></g></g><mask></mask><g stroke-linecap="round"><g transform="translate(254.1000593349055 301.7214488585814) rotate(0 54.14806963325958 -31.973606707731165)"><path d="M1.94 -0.81 C19.37 -10.64, 85.62 -48.99, 103.09 -59.3 M-0.45 -3.72 C18.06 -14.28, 90.96 -53.72, 108.75 -63.14" stroke="#1e1e1e" stroke-width="1" fill="none"></path></g><g transform="translate(254.1000593349055 301.7214488585814) rotate(0 54.14806963325958 -31.973606707731165)"><path d="M87.61 -42.73 C96.84 -43.23, 96.94 -53.98, 106.2 -61.38 M90.17 -42.72 C93.51 -45.66, 98.8 -52.41, 108.58 -63.49" stroke="#1e1e1e" stroke-width="1" fill="none"></path></g><g transform="translate(254.1000593349055 301.7214488585814) rotate(0 54.14806963325958 -31.973606707731165)"><path d="M77.9 -60.81 C89.49 -56.98, 91.98 -63.27, 106.2 -61.38 M80.47 -60.81 C86.09 -59.94, 93.48 -62.78, 108.58 -63.49" stroke="#1e1e1e" stroke-width="1" fill="none"></path></g></g><mask></mask><g stroke-linecap="round"><g transform="translate(244.4812601004097 129.96295073486795) rotate(0 56.3526986759378 46.9600331521649)"><path d="M-0.44 1.64 C18.29 16.8, 92.02 75.77, 111.41 90.3 M-4.12 0.06 C15.6 15.76, 96.89 78.7, 116.82 93.86" stroke="#1e1e1e" stroke-width="1" fill="none"></path></g><g transform="translate(244.4812601004097 129.96295073486795) rotate(0 56.3526986759378 46.9600331521649)"><path d="M90.56 82.21 C95.61 91.09, 101.05 89.83, 115.27 96.6 M89.9 83.1 C95.49 85.74, 101.13 90.71, 117.33 94.84" stroke="#1e1e1e" stroke-width="1" fill="none"></path></g><g transform="translate(244.4812601004097 129.96295073486795) rotate(0 56.3526986759378 46.9600331521649)"><path d="M103.07 65.94 C104.71 79.1, 106.83 82.17, 115.27 96.6 M102.41 66.83 C105.14 73.04, 108.02 81.61, 117.33 94.84" stroke="#1e1e1e" stroke-width="1" fill="none"></path></g></g><mask></mask><g stroke-linecap="round" transform="translate(368.2861328125 83.14277648925781) rotate(0 84 48)"><path d="M22.63 -2.98 L140.65 0.44 L162.35 6.29 L161.85 8.47 L171.17 15.88 L170.3 72.29 L163.26 85.64 L158 94.97 L141.4 95.83 L27.78 93.67 L9.5 91.07 L6.12 83.48 L-0.66 77.12 L3.73 14.95 L7.96 3.7 L14.09 5.13 L25.02 1.96" stroke="none" stroke-width="0" fill="#a5d8ff"></path><path d="M24 0 M24 0 C67.12 -2.18, 101.35 -0.04, 144 0 M24 0 C58.09 -0.69, 87.81 1.43, 144 0 M144 0 C159.62 -0.71, 167.29 8.19, 168 24 M144 0 C156.8 -3.16, 167.57 9.52, 168 24 M168 24 C164.77 44.95, 168.43 57.73, 168 72 M168 24 C167.8 40.56, 168.92 60.06, 168 72 M168 72 C171.24 87.78, 161.27 92.51, 144 96 M168 72 C172.17 88.99, 163.65 92.14, 144 96 M144 96 C103.47 92.26, 58.78 95.85, 24 96 M144 96 C107.92 97.92, 70.29 94.72, 24 96 M24 96 C5.06 95.49, -3.64 85.15, 0 72 M24 96 C10.97 97.39, 1.77 85.91, 0 72 M0 72 C-3.71 59.63, -2.41 47.09, 0 24 M0 72 C2.33 58.37, 1.69 45.78, 0 24 M0 24 C-1.21 9.87, 4.1 -1.66, 24 0 M0 24 C-4.29 10.93, 8.28 1.7, 24 0" stroke="#1e1e1e" stroke-width="1" fill="none"></path></g><g transform="translate(395.43817138671875 111.14277648925781) rotate(0 56.84796142578125 20)"><text x="56.84796142578125" y="0" font-family="Virgil, Segoe UI Emoji" font-size="16px" fill="#1e1e1e" text-anchor="middle" style="white-space: pre;" direction="ltr" dominant-baseline="text-before-edge">Remote Java</text><text x="56.84796142578125" y="20" font-family="Virgil, Segoe UI Emoji" font-size="16px" fill="#1e1e1e" text-anchor="middle" style="white-space: pre;" direction="ltr" dominant-baseline="text-before-edge">Data Adapter</text></g><g stroke-linecap="round" transform="translate(360.28582763671875 62.214141845703125) rotate(0 102 128)"><path d="M32 0 M32 0 C78.79 -0.05, 127.02 5.46, 172 0 M32 0 C64.97 -3.77, 100.86 -4.07, 172 0 M172 0 C193.51 -1.93, 204.98 6.91, 204 32 M172 0 C196.26 -3.8, 203.29 14.05, 204 32 M204 32 C196.61 83.91, 198.95 139.43, 204 224 M204 32 C201.67 73.45, 200.2 116.42, 204 224 M204 224 C200.84 243.12, 195.91 258.75, 172 256 M204 224 C204.66 248.78, 191.05 252.58, 172 256 M172 256 C127.45 258.35, 71.46 259.91, 32 256 M172 256 C142.76 255.64, 109.78 257.42, 32 256 M32 256 C11.8 253.13, -3.47 242.49, 0 224 M32 256 C13.24 254.64, -4.21 246.84, 0 224 M0 224 C-1 170, -2.32 113.36, 0 32 M0 224 C-0.58 148.29, 1.6 75.22, 0 32 M0 32 C0.71 7.27, 9.01 2.77, 32 0 M0 32 C-0.43 7.76, 10.47 2.72, 32 0" stroke="#1e1e1e" stroke-width="2" fill="none"></path></g><g transform="translate(437.54188537597656 293.2141418457031) rotate(0 60.871971130371094 10)"><text x="121.74394226074219" y="0" font-family="Virgil, Segoe UI Emoji" font-size="16px" fill="#1e1e1e" text-anchor="end" style="white-space: pre;" direction="ltr" dominant-baseline="text-before-edge">Remote Server </text></g><g stroke-linecap="round" transform="translate(370.28619384765625 185.71414184570312) rotate(0 84 48)"><path d="M20.65 0.44 L147.72 2.92 L155.85 2.47 L168.17 6.88 L169.93 18.67 L166.63 71.01 L164 88.97 L156.02 92.46 L147.78 93.67 L24.12 94.45 L12.12 89.48 L2.34 86.12 L3.73 74.2 L2.34 16.08 L6.59 9.63 L14.52 3.46 L25.28 2.97" stroke="none" stroke-width="0" fill="#a5d8ff"></path><path d="M24 0 M24 0 C69.38 2.21, 118.22 3.74, 144 0 M24 0 C61.91 2.17, 100.87 -0.13, 144 0 M144 0 C159.29 0.19, 165.22 5.25, 168 24 M144 0 C159.57 1.52, 172.26 6.99, 168 24 M168 24 C167.92 31.9, 170.24 47.07, 168 72 M168 24 C169.06 42.97, 169.6 61.56, 168 72 M168 72 C169.27 84.51, 163.62 96.86, 144 96 M168 72 C171.65 84.14, 162.9 96.88, 144 96 M144 96 C115.08 95.25, 82.53 91.51, 24 96 M144 96 C104.91 95.85, 65.19 97.41, 24 96 M24 96 C4.36 93.15, 2.59 89.21, 0 72 M24 96 C9.77 93.91, -0.59 89.09, 0 72 M0 72 C-1.35 60.93, 0.19 42.45, 0 24 M0 72 C0.31 62.16, -1.48 51.18, 0 24 M0 24 C-3.9 6.34, 4.27 2.55, 24 0 M0 24 C0.28 9.7, 8.23 1.97, 24 0" stroke="#1e1e1e" stroke-width="1" fill="none"></path></g><g transform="translate(378.76624298095703 213.71414184570312) rotate(0 75.51995086669922 20)"><text x="75.51995086669922" y="0" font-family="Virgil, Segoe UI Emoji" font-size="16px" fill="#1e1e1e" text-anchor="middle" style="white-space: pre;" direction="ltr" dominant-baseline="text-before-edge">Remote Java</text><text x="75.51995086669922" y="20" font-family="Virgil, Segoe UI Emoji" font-size="16px" fill="#1e1e1e" text-anchor="middle" style="white-space: pre;" direction="ltr" dominant-baseline="text-before-edge">Metadata Adapter</text></g></svg>