<svg version="1.1" xmlns="http://www.w3.org/2000/svg" viewBox="0 0 487.52665605118136 379.5715026855469" width="487.52665605118136" height="379.5715026855469">
  <!-- svg-source:excalidraw -->
  
  <defs>
    <style class="style-fonts">
      @font-face {
        font-family: "Virgil";
        src: url("https://excalidraw.com/Virgil.woff2");
      }
      @font-face {
        font-family: "Cascadia";
        src: url("https://excalidraw.com/Cascadia.woff2");
      }
    </style>
    
  </defs>
  <rect x="0" y="0" width="487.52665605118136" height="379.5715026855469" fill="#ffffff"></rect><g stroke-linecap="round" transform="translate(319.2409504847751 44.42869567871094) rotate(0 79 48)"><path d="M24.36 0.82 L131.36 -0.34 L146.1 -0.54 L158.55 12.74 L158.85 19.81 L160.29 75.74 L158.18 86.8 L148.74 92.51 L130.85 94.2 L23.51 99.46 L11.3 96.57 L4.39 89.32 L0.41 78.04 L-0.01 16.74 L6.9 3.2 L10.2 1.34 L22.63 2.41" stroke="none" stroke-width="0" fill="#a5d8ff"></path><path d="M24 0 M24 0 C49.15 0.35, 65.22 3.54, 134 0 M24 0 C53.98 -2.35, 86.87 -1.34, 134 0 M134 0 C150.26 3.88, 161.84 4.78, 158 24 M134 0 C147.32 3.35, 155.87 4.42, 158 24 M158 24 C161.27 34.22, 157.43 45.54, 158 72 M158 24 C156.68 39.93, 158.16 52.14, 158 72 M158 72 C157.31 88.64, 152.16 95.43, 134 96 M158 72 C156.2 87.85, 153.97 99.41, 134 96 M134 96 C92.68 93.14, 51.23 98.18, 24 96 M134 96 C99.18 92.46, 62.81 92.36, 24 96 M24 96 C11.02 95.25, -3.24 85.92, 0 72 M24 96 C5.59 96.34, 3.23 85.26, 0 72 M0 72 C4.55 58.49, -2.21 42.09, 0 24 M0 72 C-1.34 54.47, -0.56 33.36, 0 24 M0 24 C-3.68 10.54, 8.35 2.13, 24 0 M0 24 C4.53 12.27, 11.02 -3.8, 24 0" stroke="#1e1e1e" stroke-width="1" fill="none"></path></g><g transform="translate(334.6329945521579 82.42869567871094) rotate(0 63.60795593261719 10)"><text x="63.60795593261719" y="0" font-family="Virgil, Segoe UI Emoji" font-size="16px" fill="#1e1e1e" text-anchor="middle" style="white-space: pre;" direction="ltr" dominant-baseline="text-before-edge">Remote Adapter</text></g><g stroke-linecap="round" transform="translate(319.52665605118136 239.5715789794922) rotate(0 79 48)"><path d="M21.47 -3.91 L137.92 3.37 L149.85 4.81 L156.91 13.12 L161.18 18.55 L158.12 71.89 L151.47 84.82 L148.14 96.09 L135.92 99.94 L25.02 98.69 L9.41 93.04 L2.99 84.99 L1.27 74.82 L-2.92 18.22 L4.63 8.41 L9.65 -1.48 L23.8 2.74" stroke="none" stroke-width="0" fill="#a5d8ff"></path><path d="M24 0 M24 0 C57.12 -4.18, 92.3 -4.93, 134 0 M24 0 C47.17 2.83, 71.99 -0.72, 134 0 M134 0 C147.67 2.91, 156.15 4.89, 158 24 M134 0 C147.64 -3.47, 154.69 12.6, 158 24 M158 24 C157.99 32.64, 159.1 47.81, 158 72 M158 24 C158.16 42.53, 159.59 60.14, 158 72 M158 72 C156.44 87.87, 153.45 98.96, 134 96 M158 72 C161.64 89.14, 146.94 96.45, 134 96 M134 96 C105.98 98.3, 71.74 100.65, 24 96 M134 96 C110.1 94, 81.56 93.33, 24 96 M24 96 C5.9 96.29, 2.81 85.62, 0 72 M24 96 C9.01 91.49, -2.71 92.15, 0 72 M0 72 C4.69 58.82, 0.19 37.55, 0 24 M0 72 C-1.98 55.04, 0.04 36.6, 0 24 M0 24 C3.94 11.72, 10.62 -3.31, 24 0 M0 24 C3.86 4.55, 12.14 -2.33, 24 0" stroke="#1e1e1e" stroke-width="1" fill="none"></path></g><g transform="translate(334.9187001185642 277.5715789794922) rotate(0 63.60795593261719 10)"><text x="63.60795593261719" y="0" font-family="Virgil, Segoe UI Emoji" font-size="16px" fill="#1e1e1e" text-anchor="middle" style="white-space: pre;" direction="ltr" dominant-baseline="text-before-edge">Remote Adapter</text></g><g stroke-linecap="round" transform="translate(10 10) rotate(0 68.19620158815167 82.21430969238281)"><path d="M32.61 0.72 L113.04 2.37 L125.67 4.59 L131.95 12.44 L132.82 17.1 L136.15 33.73 L137.35 134.4 L134.9 147.77 L131.91 152.14 L123.7 159.11 L118.84 161.03 L102.74 164.35 L23.81 165.13 L10.58 158.44 L4.4 153.3 L2.12 144.62 L1.71 132.16 L-0.65 24.99 L0.48 16.19 L7.85 7.19 L18.13 3.94 L33.92 -1.61" stroke="none" stroke-width="0" fill="#00cc22"></path><path d="M32 0 M32 0 C47.95 -0.69, 65.5 -1.1, 104.39 0 M32 0 C60.37 -0.04, 88.98 0.24, 104.39 0 M104.39 0 C125.29 1.59, 137.44 10.12, 136.39 32 M104.39 0 C125.33 0.37, 137.64 10.34, 136.39 32 M136.39 32 C137.84 59.79, 136.85 83.08, 136.39 132.43 M136.39 32 C136.95 63.39, 136.11 93.22, 136.39 132.43 M136.39 132.43 C137.71 152.38, 126.83 162.95, 104.39 164.43 M136.39 132.43 C138.13 153.33, 123.86 163.23, 104.39 164.43 M104.39 164.43 C85.28 165.37, 66.58 163.76, 32 164.43 M104.39 164.43 C76.38 164.84, 48.77 163.72, 32 164.43 M32 164.43 C10.17 166.02, 0.29 153.37, 0 132.43 M32 164.43 C8.55 165.89, 0.2 154.99, 0 132.43 M0 132.43 C-2.59 94.09, -2.43 54.2, 0 32 M0 132.43 C0.36 108.29, 1.3 82.32, 0 32 M0 32 C0.31 9.54, 10.53 0.41, 32 0 M0 32 C-0.43 12.51, 11.74 0.38, 32 0" stroke="#1e1e1e" stroke-width="1" fill="none"></path></g><g transform="translate(39.95764567994854 77.0595982283491) rotate(0 38.238555908203125 15.15471146403371)"><text x="38.238555908203125" y="0" font-family="Virgil, Segoe UI Emoji" font-size="12.123769171226959px" fill="#1e1e1e" text-anchor="middle" style="white-space: pre;" direction="ltr" dominant-baseline="text-before-edge">Lightsteamer</text><text x="38.238555908203125" y="15.1547114640337" font-family="Virgil, Segoe UI Emoji" font-size="12.123769171226959px" fill="#1e1e1e" text-anchor="middle" style="white-space: pre;" direction="ltr" dominant-baseline="text-before-edge">Kernel</text></g><g stroke-linecap="round" transform="translate(121.29656539566827 47.69950060634392) rotate(0 49.5 46)"><path d="M24.78 0.09 L81.45 0.3 L91.67 4.85 L97.32 14.67 L99.96 24.97 L99.15 75.74 L93.27 86.46 L85.87 89.75 L76.45 90.6 L15.96 91.56 L5.06 87.45 L-1.57 72.9 L0.26 18.98 L5.87 3.94 L14.65 1.17 L21.85 0.49" stroke="none" stroke-width="0" fill="#ffec99"></path><path d="M23 0 M23 0 C34.05 0.17, 48.66 1.96, 76 0 M23 0 C34.17 -1.16, 45.76 -1.14, 76 0 M76 0 C89.9 2, 98.14 7.74, 99 23 M76 0 C89.99 -0.03, 96.88 8.28, 99 23 M99 23 C98.82 35.46, 99.68 49.69, 99 69 M99 23 C99.68 36.89, 99.61 49.54, 99 69 M99 69 C97.67 84.53, 90.64 92.32, 76 92 M99 69 C101.1 84.99, 91.5 89.74, 76 92 M76 92 C55.12 93.8, 36.82 90.67, 23 92 M76 92 C63.56 91.44, 49.93 91.06, 23 92 M23 92 C6.49 93.81, 0.97 82.76, 0 69 M23 92 C8.24 94.26, 2.04 84.01, 0 69 M0 69 C-0.76 54.49, 0.9 43.84, 0 23 M0 69 C0.2 51.92, 0.39 35.74, 0 23 M0 23 C1.8 6.65, 6.91 -1.38, 23 0 M0 23 C-0.05 9.73, 9.78 -0.08, 23 0" stroke="#1e1e1e" stroke-width="1" fill="none"></path></g><g transform="translate(146.9989656031878 78.54478914231021) rotate(0 23.79759979248047 15.15471146403371)"><text x="23.79759979248047" y="0" font-family="Virgil, Segoe UI Emoji" font-size="12.123769171226959px" fill="#1e1e1e" text-anchor="middle" style="white-space: pre;" direction="ltr" dominant-baseline="text-before-edge">Proxy </text><text x="23.79759979248047" y="15.1547114640337" font-family="Virgil, Segoe UI Emoji" font-size="12.123769171226959px" fill="#1e1e1e" text-anchor="middle" style="white-space: pre;" direction="ltr" dominant-baseline="text-before-edge">Adapter</text></g><g stroke-linecap="round" transform="translate(10.28570556640625 205.14288330078125) rotate(0 68.19620158815167 82.21430969238281)"><path d="M28.85 -1.8 L111.41 3.96 L125.81 8.44 L132.91 15.19 L136.43 32.42 L136 130.8 L135.29 143.63 L120.6 159.77 L103.02 166.83 L20.65 160.95 L12.3 162.67 L4.74 148.32 L3.43 131.89 L-1.8 25.48 L4.95 4.38 L17.7 0.39 L32.26 3.88" stroke="none" stroke-width="0" fill="#00cc22"></path><path d="M32 0 M32 0 C63.58 -1.01, 86.21 -1.21, 104.39 0 M32 0 C47.4 -1.37, 63.34 -1.47, 104.39 0 M104.39 0 C122.03 1.06, 135.53 13.84, 136.39 32 M104.39 0 C128.14 -1.26, 135.6 11.4, 136.39 32 M136.39 32 C135.98 71.01, 139.07 106.29, 136.39 132.43 M136.39 32 C134.36 64.93, 136.88 97.79, 136.39 132.43 M136.39 132.43 C136.68 149.83, 128.37 161.67, 104.39 164.43 M136.39 132.43 C138.93 150.36, 129.19 163.56, 104.39 164.43 M104.39 164.43 C88.83 166.48, 70.3 164.55, 32 164.43 M104.39 164.43 C90.75 164.16, 75.66 167.7, 32 164.43 M32 164.43 C14.21 163.86, -0.99 156.95, 0 132.43 M32 164.43 C11.33 163.53, -4.24 156.69, 0 132.43 M0 132.43 C2.65 104.05, -4.38 73.78, 0 32 M0 132.43 C-2.57 108.46, -1.85 89.04, 0 32 M0 32 C3.68 10.52, 11.29 -2.24, 32 0 M0 32 C-0.31 11.6, 9.81 3.7, 32 0" stroke="#1e1e1e" stroke-width="1" fill="none"></path></g><g transform="translate(40.24335124635479 272.20248152913035) rotate(0 38.238555908203125 15.15471146403371)"><text x="38.238555908203125" y="0" font-family="Virgil, Segoe UI Emoji" font-size="12.123769171226959px" fill="#1e1e1e" text-anchor="middle" style="white-space: pre;" direction="ltr" dominant-baseline="text-before-edge">Lightsteamer</text><text x="38.238555908203125" y="15.1547114640337" font-family="Virgil, Segoe UI Emoji" font-size="12.123769171226959px" fill="#1e1e1e" text-anchor="middle" style="white-space: pre;" direction="ltr" dominant-baseline="text-before-edge">Kernel</text></g><g stroke-linecap="round" transform="translate(121.58227096207452 242.84238390712517) rotate(0 49.5 46)"><path d="M24.92 3.94 L82.41 3.05 L93.29 6.17 L97.17 11.31 L99.9 20.2 L95.34 74.23 L91.88 88.66 L82.21 87.59 L75.8 94.74 L17.85 88.03 L9.18 85.71 L-1.94 75.37 L-2.69 13.99 L5.45 4.14 L13.2 5.32 L26.84 -3.22" stroke="none" stroke-width="0" fill="#ffec99"></path><path d="M23 0 M23 0 C32.7 -1.56, 45.61 -2.39, 76 0 M23 0 C43.03 -0.06, 63.55 0.49, 76 0 M76 0 C90.47 3.18, 101.1 6.57, 99 23 M76 0 C90.54 0.73, 101.49 7.01, 99 23 M99 23 C101.94 38.17, 99.96 44.34, 99 69 M99 23 C100.5 37.82, 98.82 49.52, 99 69 M99 69 C101.64 81.57, 93.54 89.04, 76 92 M99 69 C102.47 83.47, 87.61 89.61, 76 92 M76 92 C60.5 93.62, 45.83 90.39, 23 92 M76 92 C55.81 93.13, 36.4 90.88, 23 92 M23 92 C6.68 95.19, 0.57 83.55, 0 69 M23 92 C3.43 94.93, 0.4 86.79, 0 69 M0 69 C-4.16 54.03, -3.86 35.95, 0 23 M0 69 C0.3 59.33, 2.19 45.99, 0 23 M0 23 C0.63 5.42, 7.4 0.82, 23 0 M0 23 C-0.86 11.36, 9.81 0.76, 23 0" stroke="#1e1e1e" stroke-width="1" fill="none"></path></g><g transform="translate(147.28467116959405 273.68767244309146) rotate(0 23.79759979248047 15.15471146403371)"><text x="23.79759979248047" y="0" font-family="Virgil, Segoe UI Emoji" font-size="12.123769171226959px" fill="#1e1e1e" text-anchor="middle" style="white-space: pre;" direction="ltr" dominant-baseline="text-before-edge">Proxy </text><text x="23.79759979248047" y="15.1547114640337" font-family="Virgil, Segoe UI Emoji" font-size="12.123769171226959px" fill="#1e1e1e" text-anchor="middle" style="white-space: pre;" direction="ltr" dominant-baseline="text-before-edge">Adapter</text></g><g stroke-linecap="round"><g transform="translate(305.9549397425876 97.21438598632812) rotate(0 -38.61309586613436 -1.2365593511611053)"><path d="M-0.12 -0.49 C-12.84 -0.84, -63.4 -1.87, -76.3 -1.98 M-1.64 -1.79 C-14.49 -2.02, -64.85 -1.2, -77.11 -0.89" stroke="#1e1e1e" stroke-width="1" fill="none"></path></g><g transform="translate(305.9549397425876 97.21438598632812) rotate(0 -38.61309586613436 -1.2365593511611053)"><path d="M-49.94 -11.25 C-58.94 -10.12, -66.04 -5.91, -75.91 -2.81 M-49.07 -12.6 C-54.59 -9.2, -62.33 -6.39, -77.87 -1.79" stroke="#1e1e1e" stroke-width="1" fill="none"></path></g><g transform="translate(305.9549397425876 97.21438598632812) rotate(0 -38.61309586613436 -1.2365593511611053)"><path d="M-49.54 9.27 C-58.68 4.22, -65.9 2.26, -75.91 -2.81 M-48.66 7.91 C-54.26 6.69, -62.1 4.88, -77.87 -1.79" stroke="#1e1e1e" stroke-width="1" fill="none"></path></g></g><mask></mask><g stroke-linecap="round"><g transform="translate(306.24064530899386 292.3572692871094) rotate(0 -38.53426045864819 -0.3593806963413897)"><path d="M0.95 0.63 C-11.92 0.45, -64.01 -1.16, -76.9 -1.35 M-0.01 -0.09 C-13.09 -0.06, -65.18 0.48, -78.02 0.08" stroke="#1e1e1e" stroke-width="1" fill="none"></path></g><g transform="translate(306.24064530899386 292.3572692871094) rotate(0 -38.53426045864819 -0.3593806963413897)"><path d="M-48.71 -10.52 C-59.35 -6.15, -67.16 -3.47, -78.8 0.02 M-49.51 -10.64 C-60.5 -6.22, -71.35 -1.07, -77.74 0.15" stroke="#1e1e1e" stroke-width="1" fill="none"></path></g><g transform="translate(306.24064530899386 292.3572692871094) rotate(0 -38.53426045864819 -0.3593806963413897)"><path d="M-48.86 10 C-59.41 7.67, -67.17 3.65, -78.8 0.02 M-49.66 9.88 C-60.75 6.38, -71.54 3.6, -77.74 0.15" stroke="#1e1e1e" stroke-width="1" fill="none"></path></g></g><mask></mask></svg>