<svg version="1.1" xmlns="http://www.w3.org/2000/svg" viewBox="0 0 687.8123311000095 434.1429901123047" width="687.8123311000095" height="434.1429901123047">
  <!-- svg-source:excalidraw -->
  
  <defs>
    <style class="style-fonts">
      @font-face {
        font-family: "Virgil";
        src: url("https://excalidraw.com/Virgil.woff2");
      }
      @font-face {
        font-family: "Cascadia";
        src: url("https://excalidraw.com/Cascadia.woff2");
      }
    </style>
    
  </defs>
  <rect x="0" y="0" width="687.8123311000095" height="434.1429901123047" fill="#ffffff"></rect><g stroke-linecap="round" transform="translate(510.9551533656345 96.4287109375) rotate(0 79 48)"><path d="M26.37 3.74 L137.83 -1.69 L145.65 3.98 L154.77 11.12 L157.56 19.77 L156.56 70.86 L155.08 82.87 L151.85 90.15 L134.5 99.73 L20.83 92.02 L11.92 95.47 L4 89.7 L-2.01 78.68 L-1.18 20.22 L7.33 4.24 L10.15 3.45 L25.84 -1.29" stroke="none" stroke-width="0" fill="#a5d8ff"></path><path d="M24 0 M24 0 C45.8 -5.52, 69.85 -1.41, 134 0 M24 0 C60.87 -2.71, 94.91 -3.05, 134 0 M134 0 C148.8 3.25, 154.39 9.07, 158 24 M134 0 C147.06 0.36, 160.88 11.77, 158 24 M158 24 C156.24 39.97, 154.99 56.85, 158 72 M158 24 C157.88 38.2, 159.81 51.19, 158 72 M158 72 C158.76 91.29, 150.91 99.96, 134 96 M158 72 C159.62 89, 147.51 94.82, 134 96 M134 96 C107.25 95.53, 75.36 97.63, 24 96 M134 96 C92.69 94.78, 51.65 96.28, 24 96 M24 96 C9.43 94.01, 1.78 91.38, 0 72 M24 96 C7.88 100.42, 2.55 84.73, 0 72 M0 72 C-2.41 53.62, -1.55 41.75, 0 24 M0 72 C-0.16 59.75, 0.18 49.14, 0 24 M0 24 C-1.96 9.44, 6.92 -1.14, 24 0 M0 24 C-2.21 9.91, 8.86 2.91, 24 0" stroke="#1e1e1e" stroke-width="1" fill="none"></path></g><g transform="translate(526.3471974330173 134.4287109375) rotate(0 63.60795593261719 10)"><text x="63.60795593261719" y="0" font-family="Virgil, Segoe UI Emoji" font-size="16px" fill="#1e1e1e" text-anchor="middle" style="white-space: pre;" direction="ltr" dominant-baseline="text-before-edge">Remote Adapter</text></g><g stroke-linecap="round" transform="translate(519.8123311000095 237.85720825195312) rotate(0 79 48)"><path d="M21.02 0.6 L134.14 1.74 L148.56 4.77 L153.19 8.24 L158.08 14.62 L161.23 69.53 L155.13 90.35 L145.46 88.64 L136.54 98.85 L24.63 99.07 L6.99 93.68 L1.82 88.47 L1.7 75.87 L-2.97 20.32 L7.84 4.71 L9.7 4.92 L27.87 -0.77" stroke="none" stroke-width="0" fill="#a5d8ff"></path><path d="M24 0 M24 0 C48.66 -0.47, 74.12 1.83, 134 0 M24 0 C49.95 3.29, 75.28 2.19, 134 0 M134 0 C147.44 0.32, 160.5 11.28, 158 24 M134 0 C151.91 -0.25, 155.04 6.03, 158 24 M158 24 C156.48 37.74, 157.2 51.62, 158 72 M158 24 C159.27 41.88, 159.34 58.46, 158 72 M158 72 C159.41 88.87, 147.84 94.97, 134 96 M158 72 C156.75 89.31, 147.01 99.74, 134 96 M134 96 C101.17 95.5, 64.02 96.56, 24 96 M134 96 C112.42 94.52, 90.3 97.2, 24 96 M24 96 C7.9 99.84, 2.22 85.16, 0 72 M24 96 C7.99 97.57, 0.13 85.6, 0 72 M0 72 C-2.13 61.19, -3 51.88, 0 24 M0 72 C-0.93 60.14, -0.49 46.26, 0 24 M0 24 C-1.92 9.66, 8.75 2.53, 24 0 M0 24 C-3.97 8.94, 10.75 -2.72, 24 0" stroke="#1e1e1e" stroke-width="1" fill="none"></path></g><g transform="translate(535.2043751673923 275.8572082519531) rotate(0 63.60795593261719 10)"><text x="63.60795593261719" y="0" font-family="Virgil, Segoe UI Emoji" font-size="16px" fill="#1e1e1e" text-anchor="middle" style="white-space: pre;" direction="ltr" dominant-baseline="text-before-edge">Remote Adapter</text></g><g stroke-linecap="round" transform="translate(33.14288330078125 10) rotate(0 68.5 62.5)"><path d="M31.22 0.7 L112.36 -0.08 L119.65 0.07 L130.8 6.58 L135.3 19.44 L135.42 29.26 L137.78 102.5 L135.36 108.96 L128 117.72 L118.64 123.97 L106.41 124.12 L22.25 125.49 L18.5 122.4 L5.91 118.9 L3.89 107.04 L-1.21 101.44 L0.85 24.43 L1.91 18.98 L8.92 6.64 L16.97 0.45 L30.65 1.63" stroke="none" stroke-width="0" fill="#00cc22"></path><path d="M31.25 0 M31.25 0 C47.04 1.73, 64.15 1.31, 105.75 0 M31.25 0 C53.09 -0.42, 75.16 0.12, 105.75 0 M105.75 0 C126.51 -0.04, 136.92 11.18, 137 31.25 M105.75 0 C128.71 0.38, 137.44 12.31, 137 31.25 M137 31.25 C138.06 50.33, 137.11 71.03, 137 93.75 M137 31.25 C136.83 52.12, 137.36 73.01, 137 93.75 M137 93.75 C135.91 115.24, 126.02 123.05, 105.75 125 M137 93.75 C136.02 114.07, 127.41 123.86, 105.75 125 M105.75 125 C82 126.09, 52.99 124.98, 31.25 125 M105.75 125 C79.86 124.31, 55.59 124.01, 31.25 125 M31.25 125 C9.82 123.35, -0.44 113.83, 0 93.75 M31.25 125 C10.29 125.13, -1.13 115.41, 0 93.75 M0 93.75 C1.01 77.07, 1.44 57.91, 0 31.25 M0 93.75 C-1.04 74.47, -1 53.44, 0 31.25 M0 31.25 C-0.57 11.81, 8.55 -1.07, 31.25 0 M0 31.25 C-1.06 8.76, 9 -1.18, 31.25 0" stroke="#1e1e1e" stroke-width="1" fill="none"></path></g><g transform="translate(51.16291809082031 52.5) rotate(0 50.47996520996094 20)"><text x="50.47996520996094" y="0" font-family="Virgil, Segoe UI Emoji" font-size="16px" fill="#1e1e1e" text-anchor="middle" style="white-space: pre;" direction="ltr" dominant-baseline="text-before-edge">Lightsteamer</text><text x="50.47996520996094" y="20" font-family="Virgil, Segoe UI Emoji" font-size="16px" fill="#1e1e1e" text-anchor="middle" style="white-space: pre;" direction="ltr" dominant-baseline="text-before-edge">Server</text></g><g stroke-linecap="round" transform="translate(10 153.14283752441406) rotate(0 68.5 62.5)"><path d="M32.93 0.67 L113.34 0.41 L118.04 1.34 L129.31 7.55 L134.73 16.23 L136.13 29.64 L137.24 100.41 L133.59 107.03 L129.1 117.73 L120.31 121.4 L105.4 126.59 L23.91 123.31 L18.24 123.06 L6.74 117.54 L1.87 108.99 L0.58 100.69 L1.18 22.14 L1.1 18 L6.36 5.97 L16.61 1.78 L30.55 -0.19" stroke="none" stroke-width="0" fill="#00cc22"></path><path d="M31.25 0 M31.25 0 C55.27 1.05, 76.42 -0.15, 105.75 0 M31.25 0 C57.93 -0.97, 83.36 -0.61, 105.75 0 M105.75 0 C126.4 1.32, 136.48 12.32, 137 31.25 M105.75 0 C124.74 1.51, 139.11 9.52, 137 31.25 M137 31.25 C137.63 44.97, 136.54 60.76, 137 93.75 M137 31.25 C135.85 51.8, 135.58 74.98, 137 93.75 M137 93.75 C137.46 113.96, 127.12 123.8, 105.75 125 M137 93.75 C136.98 113.77, 127.21 123.7, 105.75 125 M105.75 125 C83.68 123.55, 65.2 123.27, 31.25 125 M105.75 125 C86.75 125.78, 66.54 124.92, 31.25 125 M31.25 125 C11.46 126.7, -0.42 115.75, 0 93.75 M31.25 125 C9.08 126.12, 1.17 115.19, 0 93.75 M0 93.75 C1.69 68.21, 0.19 47.35, 0 31.25 M0 93.75 C-0.08 71.24, 1 47.59, 0 31.25 M0 31.25 C-1.4 9.82, 12.38 1.87, 31.25 0 M0 31.25 C2.28 11.17, 9.52 1.91, 31.25 0" stroke="#1e1e1e" stroke-width="1" fill="none"></path></g><g transform="translate(28.020034790039062 195.64283752441406) rotate(0 50.47996520996094 20)"><text x="50.47996520996094" y="0" font-family="Virgil, Segoe UI Emoji" font-size="16px" fill="#1e1e1e" text-anchor="middle" style="white-space: pre;" direction="ltr" dominant-baseline="text-before-edge">Lightsteamer</text><text x="50.47996520996094" y="20" font-family="Virgil, Segoe UI Emoji" font-size="16px" fill="#1e1e1e" text-anchor="middle" style="white-space: pre;" direction="ltr" dominant-baseline="text-before-edge">Server</text></g><g stroke-linecap="round" transform="translate(30.857086181640625 299.1429901123047) rotate(0 68.5 62.5)"><path d="M31.79 -1.2 L113.05 -0.22 L119.96 0.82 L128.74 9.3 L134.42 16.2 L135.79 32.09 L135.01 100.4 L135.59 108.91 L130.9 117.65 L120.42 121.79 L106.8 126.7 L23.51 125.68 L16.42 124.02 L8.83 117.72 L3.66 107.82 L1.8 102.89 L-0.98 24.24 L3.7 18.82 L6.31 9.12 L16.48 2.17 L32.32 -1.84" stroke="none" stroke-width="0" fill="#00cc22"></path><path d="M31.25 0 M31.25 0 C50.24 1.25, 66.16 -1.51, 105.75 0 M31.25 0 C59.34 -0.91, 88.66 -0.94, 105.75 0 M105.75 0 C124.85 1.47, 137.74 10.17, 137 31.25 M105.75 0 C128.32 1.19, 139.03 8.45, 137 31.25 M137 31.25 C137.42 51.1, 136.89 68.95, 137 93.75 M137 31.25 C136.91 54.78, 135.85 78.05, 137 93.75 M137 93.75 C136.89 113.58, 127.64 126.91, 105.75 125 M137 93.75 C135.41 116.68, 125.15 126.81, 105.75 125 M105.75 125 C80.1 124.02, 57.27 123.73, 31.25 125 M105.75 125 C76.89 124.33, 48.62 124.31, 31.25 125 M31.25 125 C8.62 126.07, 1.44 114.32, 0 93.75 M31.25 125 C12.6 126.09, -1.45 115.06, 0 93.75 M0 93.75 C-1.73 69.77, -1.02 44.04, 0 31.25 M0 93.75 C0.21 77.17, 0.06 61.52, 0 31.25 M0 31.25 C-0.68 11.87, 11.25 0.25, 31.25 0 M0 31.25 C0.54 8.51, 10.73 1.63, 31.25 0" stroke="#1e1e1e" stroke-width="1" fill="none"></path></g><g transform="translate(48.87712097167969 341.6429901123047) rotate(0 50.47996520996094 20)"><text x="50.47996520996094" y="0" font-family="Virgil, Segoe UI Emoji" font-size="16px" fill="#1e1e1e" text-anchor="middle" style="white-space: pre;" direction="ltr" dominant-baseline="text-before-edge">Lightsteamer</text><text x="50.47996520996094" y="20" font-family="Virgil, Segoe UI Emoji" font-size="16px" fill="#1e1e1e" text-anchor="middle" style="white-space: pre;" direction="ltr" dominant-baseline="text-before-edge">Server</text></g><g stroke-linecap="round" transform="translate(259.76341957832506 157.49981689453125) rotate(0 90.5 56.5)"><path d="M130.82 7.18 C142.55 9.76, 154.3 14.89, 162.32 21.38 C170.34 27.87, 176.16 37.91, 178.91 46.12 C181.67 54.33, 182.04 62.85, 178.85 70.62 C175.67 78.39, 168.18 86.4, 159.81 92.72 C151.44 99.05, 140.7 105.16, 128.62 108.57 C116.55 111.98, 100.5 113.64, 87.37 113.19 C74.25 112.74, 61.28 109.73, 49.87 105.85 C38.46 101.98, 26.81 96.34, 18.93 89.94 C11.04 83.53, 5.12 75.42, 2.58 67.44 C0.03 59.45, 0.6 49.79, 3.67 42.04 C6.73 34.29, 12.58 27.02, 20.97 20.94 C29.37 14.87, 41.92 9.16, 54.03 5.59 C66.13 2.02, 79.55 -0.85, 93.61 -0.49 C107.66 -0.13, 129.95 5.75, 138.37 7.76 C146.8 9.77, 144.87 10.72, 144.16 11.58 M112.23 0.24 C124.77 1.19, 137.19 5.91, 147.35 11.33 C157.51 16.76, 167.32 25.05, 173.17 32.8 C179.02 40.55, 182.54 49.49, 182.46 57.83 C182.38 66.18, 178.53 75.72, 172.67 82.87 C166.82 90.01, 157.91 95.65, 147.35 100.7 C136.8 105.74, 122.26 111.26, 109.35 113.13 C96.45 115, 82.34 114.14, 69.92 111.92 C57.5 109.71, 44.83 105.19, 34.83 99.85 C24.84 94.52, 15.86 86.96, 9.92 79.9 C3.99 72.84, -0.47 65.49, -0.79 57.48 C-1.11 49.47, 2.35 39.3, 8.02 31.85 C13.68 24.39, 22.77 17.61, 33.21 12.77 C43.65 7.93, 57.39 4.58, 70.64 2.81 C83.89 1.03, 105.92 2.21, 112.7 2.13 C119.49 2.06, 112.14 1.42, 111.32 2.36" stroke="none" stroke-width="0" fill="#ffec99"></path><path d="M80.48 -0.43 C92.72 -2.14, 107.98 -0.62, 120.46 2.36 C132.93 5.34, 146.09 11.34, 155.33 17.46 C164.58 23.57, 171.67 31.54, 175.93 39.04 C180.18 46.54, 182.33 54.34, 180.86 62.46 C179.39 70.58, 174.08 80.77, 167.11 87.78 C160.14 94.78, 150.29 100.26, 139.04 104.49 C127.78 108.72, 112.76 112.27, 99.58 113.17 C86.39 114.06, 72.22 112.52, 59.93 109.85 C47.65 107.17, 35.03 102.81, 25.85 97.11 C16.66 91.41, 9.03 83.42, 4.81 75.65 C0.6 67.88, -1.14 58.8, 0.54 50.5 C2.22 42.2, 7.73 32.8, 14.88 25.87 C22.03 18.95, 30.6 13.21, 43.44 8.93 C56.28 4.66, 82.19 1.43, 91.89 0.24 C101.59 -0.95, 101.57 0.79, 101.65 1.77 M89.93 0.76 C102.5 0.08, 117.93 2.65, 129.56 5.94 C141.2 9.22, 151.84 14.32, 159.76 20.47 C167.68 26.62, 173.91 35.04, 177.11 42.84 C180.31 50.64, 181.46 59.11, 178.97 67.27 C176.49 75.44, 170.07 85.2, 162.22 91.81 C154.37 98.43, 143.5 103.48, 131.86 106.98 C120.23 110.48, 105.68 112.78, 92.42 112.82 C79.16 112.86, 64.31 110.48, 52.29 107.22 C40.27 103.97, 28.39 99.52, 20.29 93.28 C12.19 87.05, 6.73 78.05, 3.68 69.8 C0.63 61.56, -0.38 52.05, 2.01 43.82 C4.4 35.59, 10.07 26.74, 17.99 20.41 C25.92 14.09, 37.55 9.2, 49.59 5.88 C61.62 2.56, 83.68 1.34, 90.22 0.51 C96.75 -0.32, 89.09 0.07, 88.8 0.88" stroke="#1e1e1e" stroke-width="1" fill="none"></path></g><g transform="translate(292.9982832246925 204.04828375749133) rotate(0 57.27197265625 10)"><text x="57.27197265625" y="0" font-family="Virgil, Segoe UI Emoji" font-size="16px" fill="#1e1e1e" text-anchor="middle" style="white-space: pre;" direction="ltr" dominant-baseline="text-before-edge">Load Balancer</text></g><g stroke-linecap="round"><g transform="translate(180.9060587384813 85.69035803860106) rotate(0 38.73271087070134 52.41858432316758)"><path d="M1.03 -0.56 C13.44 16.81, 62.51 87.7, 75.23 105.4 M0.1 1.76 C12.81 19.26, 64.53 86.47, 77.36 103.43" stroke="#1e1e1e" stroke-width="1" fill="none"></path></g><g transform="translate(180.9060587384813 85.69035803860106) rotate(0 38.73271087070134 52.41858432316758)"><path d="M51.17 85.41 C61.85 94.55, 71.31 97.69, 78.1 105.25 M51.39 87.01 C58.87 92.05, 67.14 97.12, 77.96 102.78" stroke="#1e1e1e" stroke-width="1" fill="none"></path></g><g transform="translate(180.9060587384813 85.69035803860106) rotate(0 38.73271087070134 52.41858432316758)"><path d="M67.48 72.96 C72.4 86.73, 75.99 94.35, 78.1 105.25 M67.71 74.56 C69.98 83.38, 73.15 92.34, 77.96 102.78" stroke="#1e1e1e" stroke-width="1" fill="none"></path></g></g><mask></mask><g stroke-linecap="round"><g transform="translate(159.76326699043443 212.55391548572015) rotate(0 42.64162772717373 2.1756950146484826)"><path d="M-0.65 -0.12 C13.6 0.79, 71.59 4.56, 85.93 5.58 M1.21 -1.23 C15.3 -0.7, 71.29 2.79, 85.18 3.69" stroke="#1e1e1e" stroke-width="1" fill="none"></path></g><g transform="translate(159.76326699043443 212.55391548572015) rotate(0 42.64162772717373 2.1756950146484826)"><path d="M56.2 12.78 C66.74 9.24, 77.1 6.12, 84 5.26 M56.38 12.54 C68.18 8.79, 77.43 5.48, 85.62 4.53" stroke="#1e1e1e" stroke-width="1" fill="none"></path></g><g transform="translate(159.76326699043443 212.55391548572015) rotate(0 42.64162772717373 2.1756950146484826)"><path d="M57.48 -7.7 C67.61 -4.4, 77.54 -0.67, 84 5.26 M57.67 -7.94 C69.18 -3.95, 77.94 0.47, 85.62 4.53" stroke="#1e1e1e" stroke-width="1" fill="none"></path></g></g><mask></mask><g stroke-linecap="round"><g transform="translate(180.9060587384813 349.5341539176875) rotate(0 36.79471299203425 -47.34082507316873)"><path d="M0.09 -1.06 C12.48 -16.89, 62.71 -78.24, 74.92 -93.96 M-1.33 0.99 C10.93 -14.65, 61.47 -79.78, 74.33 -95.67" stroke="#1e1e1e" stroke-width="1" fill="none"></path></g><g transform="translate(180.9060587384813 349.5341539176875) rotate(0 36.79471299203425 -47.34082507316873)"><path d="M63.13 -66.06 C69.18 -78.47, 70.04 -86.19, 73.47 -97.08 M65.59 -66.28 C68.1 -74.76, 69.39 -81.96, 74.04 -95.49" stroke="#1e1e1e" stroke-width="1" fill="none"></path></g><g transform="translate(180.9060587384813 349.5341539176875) rotate(0 36.79471299203425 -47.34082507316873)"><path d="M47.03 -78.78 C58.71 -86.83, 65.11 -90.18, 73.47 -97.08 M49.48 -79 C56.34 -83.86, 62.07 -87.55, 74.04 -95.49" stroke="#1e1e1e" stroke-width="1" fill="none"></path></g></g><mask></mask><g stroke-linecap="round"><g transform="translate(448.6814431347909 207.29721465358517) rotate(0 27.846616471561276 -29.071008437785594)"><path d="M0.7 -0.8 C10.05 -10.82, 47.01 -49.81, 56.09 -59.54 M-0.39 1.39 C8.84 -8.55, 46.28 -48.54, 55.37 -58.46" stroke="#1e1e1e" stroke-width="1" fill="none"></path></g><g transform="translate(448.6814431347909 207.29721465358517) rotate(0 27.846616471561276 -29.071008437785594)"><path d="M42.38 -30.09 C45.59 -39.93, 49.68 -47.9, 54.63 -60.24 M42.91 -31.69 C48.64 -40.47, 51.65 -50.33, 54.72 -58.81" stroke="#1e1e1e" stroke-width="1" fill="none"></path></g><g transform="translate(448.6814431347909 207.29721465358517) rotate(0 27.846616471561276 -29.071008437785594)"><path d="M27.34 -44.04 C35.09 -49.83, 43.65 -53.65, 54.63 -60.24 M27.86 -45.64 C39 -49.45, 47.44 -54.27, 54.72 -58.81" stroke="#1e1e1e" stroke-width="1" fill="none"></path></g></g><mask></mask><g stroke-linecap="round"><g transform="translate(449.5798074414679 224.64490758555746) rotate(0 29.004192489915283 29.651246918036378)"><path d="M-0.27 -1.16 C9.37 8.81, 48.59 49.15, 58.28 59.5 M1.79 0.84 C11.19 10.95, 47.32 50.2, 57.08 60.47" stroke="#1e1e1e" stroke-width="1" fill="none"></path></g><g transform="translate(449.5798074414679 224.64490758555746) rotate(0 29.004192489915283 29.651246918036378)"><path d="M28.4 46.07 C37.51 50.08, 48.89 57.09, 58.93 62.27 M29.47 46.62 C35.93 49.23, 41.26 52.46, 56.97 59.82" stroke="#1e1e1e" stroke-width="1" fill="none"></path></g><g transform="translate(449.5798074414679 224.64490758555746) rotate(0 29.004192489915283 29.651246918036378)"><path d="M43.4 32.07 C47.42 40.76, 53.73 52.49, 58.93 62.27 M44.46 32.62 C47.77 38.25, 49.81 44.55, 56.97 59.82" stroke="#1e1e1e" stroke-width="1" fill="none"></path></g></g><mask></mask></svg>