<svg version="1.1" xmlns="http://www.w3.org/2000/svg" viewBox="0 0 628.8571472167969 385.28570556640625" width="628.8571472167969" height="385.28570556640625">
  <!-- svg-source:excalidraw -->
  
  <defs>
    <style class="style-fonts">
      @font-face {
        font-family: "Virgil";
        src: url("https://excalidraw.com/Virgil.woff2");
      }
      @font-face {
        font-family: "Cascadia";
        src: url("https://excalidraw.com/Cascadia.woff2");
      }
    </style>
    
  </defs>
  <rect x="0" y="0" width="628.8571472167969" height="385.28570556640625" fill="#ffffff"></rect><g stroke-linecap="round" transform="translate(10 10) rotate(0 68 55.5)"><path d="M31.54 4 L114.72 -1.68 L125.46 5.79 L132.02 14.37 L136.71 24.1 L137.72 90.77 L128.56 100.57 L119.27 109.99 L107.68 108.44 L22.77 106.64 L5.97 107.46 L4 93.11 L-2.84 22 L9.29 7.97 L14.39 -0.26 L26.84 1.64" stroke="none" stroke-width="0" fill="#ffa94d"></path><path d="M27.75 0 M27.75 0 C62.54 0.94, 90.38 3.17, 108.25 0 M27.75 0 C52.71 2.11, 80.23 1.96, 108.25 0 M108.25 0 C124.46 -0.93, 133.71 6.11, 136 27.75 M108.25 0 C129.28 -3.25, 134.75 12.63, 136 27.75 M136 27.75 C135.4 44.2, 133.09 50.81, 136 83.25 M136 27.75 C133.44 41.85, 133.91 53.29, 136 83.25 M136 83.25 C136.4 99.42, 124.3 107.19, 108.25 111 M136 83.25 C133.04 104.49, 127.54 113.18, 108.25 111 M108.25 111 C82.17 108.65, 56.87 113.58, 27.75 111 M108.25 111 C75.31 110.94, 46.7 110.4, 27.75 111 M27.75 111 C10.38 110.37, -3.94 100.37, 0 83.25 M27.75 111 C6.1 112.46, 0.63 98.78, 0 83.25 M0 83.25 C-3.77 70.05, 0.46 56.02, 0 27.75 M0 83.25 C-0.69 64.21, 1.67 48.13, 0 27.75 M0 27.75 C1.84 11.53, 6.54 -1.21, 27.75 0 M0 27.75 C-3.91 9.51, 5.81 -1.25, 27.75 0" stroke="#1e1e1e" stroke-width="1" fill="none"></path></g><g transform="translate(27.520034790039062 45.5) rotate(0 50.47996520996094 20)"><text x="50.47996520996094" y="0" font-family="Virgil, Segoe UI Emoji" font-size="16px" fill="#1e1e1e" text-anchor="middle" style="white-space: pre;" direction="ltr" dominant-baseline="text-before-edge">Lightsteamer</text><text x="50.47996520996094" y="20" font-family="Virgil, Segoe UI Emoji" font-size="16px" fill="#1e1e1e" text-anchor="middle" style="white-space: pre;" direction="ltr" dominant-baseline="text-before-edge">Server</text></g><g stroke-linecap="round" transform="translate(11.42852783203125 132) rotate(0 68 55.5)"><path d="M24.71 -2.73 L115.79 2.64 L128.14 8.53 L132.23 13.96 L134.05 28.51 L137.04 92 L125.37 105.19 L117.3 105.61 L104.36 110.21 L18.73 107.76 L6.56 101.68 L-3.25 89.23 L1.31 18.36 L5.3 6.95 L17.4 -1.71 L24.21 -2.27" stroke="none" stroke-width="0" fill="#ffa94d"></path><path d="M27.75 0 M27.75 0 C45.84 0.24, 57.93 2.26, 108.25 0 M27.75 0 C50.94 0.33, 74.3 -0.45, 108.25 0 M108.25 0 C124.77 -2.45, 139.19 7.59, 136 27.75 M108.25 0 C123 -0.45, 139.56 5.6, 136 27.75 M136 27.75 C134.07 39.25, 138.99 55.75, 136 83.25 M136 27.75 C136.72 40.98, 138.92 50.34, 136 83.25 M136 83.25 C138.28 101.5, 124.26 112.32, 108.25 111 M136 83.25 C137.81 97.19, 122.54 112.81, 108.25 111 M108.25 111 C88.79 109.7, 72.98 113.46, 27.75 111 M108.25 111 C84.05 113.66, 63.96 111.1, 27.75 111 M27.75 111 C9.11 107.43, 1.84 103.7, 0 83.25 M27.75 111 C13.78 113.7, -0.36 105.51, 0 83.25 M0 83.25 C-0.5 58.61, -4.12 41.47, 0 27.75 M0 83.25 C0.85 61.73, 0.73 44.94, 0 27.75 M0 27.75 C0.05 7.32, 9.36 2.73, 27.75 0 M0 27.75 C-1.02 5.03, 9.83 2.55, 27.75 0" stroke="#1e1e1e" stroke-width="1" fill="none"></path></g><g transform="translate(28.948562622070312 167.5) rotate(0 50.47996520996094 20)"><text x="50.47996520996094" y="0" font-family="Virgil, Segoe UI Emoji" font-size="16px" fill="#1e1e1e" text-anchor="middle" style="white-space: pre;" direction="ltr" dominant-baseline="text-before-edge">Lightsteamer</text><text x="50.47996520996094" y="20" font-family="Virgil, Segoe UI Emoji" font-size="16px" fill="#1e1e1e" text-anchor="middle" style="white-space: pre;" direction="ltr" dominant-baseline="text-before-edge">Server</text></g><g stroke-linecap="round" transform="translate(10.571380615234375 264.28570556640625) rotate(0 68 55.5)"><path d="M28.1 -3.64 L118.46 4.11 L128.45 10.21 L138.05 14.4 L138.28 27.5 L133.07 91.07 L130.64 100.1 L116.73 110.84 L105.91 111.49 L20.88 110.55 L5.78 107.69 L3.04 88.88 L-2.3 23.31 L3.3 10.6 L16.57 0.28 L27.61 -3.57" stroke="none" stroke-width="0" fill="#ffa94d"></path><path d="M27.75 0 M27.75 0 C57.95 -1.9, 86.72 1.76, 108.25 0 M27.75 0 C51.19 -1.85, 78.37 1.29, 108.25 0 M108.25 0 C129.09 -3.75, 139 5.85, 136 27.75 M108.25 0 C129.91 3.03, 136.06 7.03, 136 27.75 M136 27.75 C133.09 45.05, 138.98 60.56, 136 83.25 M136 27.75 C135.05 46.89, 134.51 70.08, 136 83.25 M136 83.25 C134.05 101.67, 129.77 108.76, 108.25 111 M136 83.25 C138.56 97.2, 129.1 108.9, 108.25 111 M108.25 111 C81.68 106.44, 47.55 110.03, 27.75 111 M108.25 111 C90.23 110.38, 74.82 110.98, 27.75 111 M27.75 111 C12.65 110.74, 0.28 105.36, 0 83.25 M27.75 111 C10.22 111.26, 1.87 104.59, 0 83.25 M0 83.25 C0.82 65.69, -1.76 43.96, 0 27.75 M0 83.25 C-0.05 62.57, -1.41 40.21, 0 27.75 M0 27.75 C3.97 9.91, 10.72 -3.4, 27.75 0 M0 27.75 C-0.98 7.45, 6.91 2.57, 27.75 0" stroke="#1e1e1e" stroke-width="1" fill="none"></path></g><g transform="translate(28.091415405273438 299.78570556640625) rotate(0 50.47996520996094 20)"><text x="50.47996520996094" y="0" font-family="Virgil, Segoe UI Emoji" font-size="16px" fill="#1e1e1e" text-anchor="middle" style="white-space: pre;" direction="ltr" dominant-baseline="text-before-edge">Lightsteamer</text><text x="50.47996520996094" y="20" font-family="Virgil, Segoe UI Emoji" font-size="16px" fill="#1e1e1e" text-anchor="middle" style="white-space: pre;" direction="ltr" dominant-baseline="text-before-edge">Server</text></g><g stroke-linecap="round" transform="translate(454.2859191894531 83.78549194335938) rotate(0 81 37.5)"><path d="M16.96 3.91 L144.48 0.65 L151.73 1.02 L162.06 9.43 L161.89 17.09 L162.74 53.06 L156.49 65.9 L158.49 74.42 L144.54 71.23 L19.02 72.3 L9.29 70.59 L0.97 63.77 L-3.4 64.5 L2.38 12.47 L2.03 7.55 L22.26 -2.81" stroke="none" stroke-width="0" fill="#a5d8ff"></path><path d="M18.75 0 M18.75 0 C59.53 -0.01, 108.43 3.58, 143.25 0 M18.75 0 C46.54 2.9, 69.09 0.55, 143.25 0 M143.25 0 C156.67 2.54, 160.42 6.7, 162 18.75 M143.25 0 C153.29 0.44, 164.69 5.57, 162 18.75 M162 18.75 C166.01 31.03, 164.86 45.91, 162 56.25 M162 18.75 C160.01 31.26, 161.99 46.96, 162 56.25 M162 56.25 C164.05 69.25, 153.4 74.18, 143.25 75 M162 56.25 C158.79 70.77, 155.45 71.57, 143.25 75 M143.25 75 C103.93 76.35, 55.82 74.33, 18.75 75 M143.25 75 C107.22 76.85, 70.93 74.17, 18.75 75 M18.75 75 C4.83 77.55, 3.5 65.66, 0 56.25 M18.75 75 C7.06 73.39, -0.74 70.9, 0 56.25 M0 56.25 C-1.63 40.99, 0.94 29.62, 0 18.75 M0 56.25 C-1.16 46.68, 1.47 38.21, 0 18.75 M0 18.75 C-0.03 9.99, 8.79 2.2, 18.75 0 M0 18.75 C0.89 1.95, 1.93 -0.73, 18.75 0" stroke="#1e1e1e" stroke-width="2" fill="none"></path></g><g transform="translate(471.67796325683594 111.28549194335938) rotate(0 63.60795593261719 10)"><text x="63.60795593261719" y="0" font-family="Virgil, Segoe UI Emoji" font-size="16px" fill="#1e1e1e" text-anchor="middle" style="white-space: pre;" direction="ltr" dominant-baseline="text-before-edge">Remote Adapter</text></g><g stroke-linecap="round" transform="translate(456.8571472167969 193.21401977539062) rotate(0 81 37.5)"><path d="M16.11 -0.88 L143.31 -3.33 L157.56 1.29 L155.49 3.52 L160.02 17.39 L162.47 59.56 L157.73 70.98 L155.43 75.53 L140.89 75.67 L19.26 77.99 L9.92 70.8 L5.78 67.85 L-0.11 62.67 L4.23 12.56 L7.54 7.71 L16.8 -1.3" stroke="none" stroke-width="0" fill="#a5d8ff"></path><path d="M18.75 0 M18.75 0 C52.75 2.57, 81.96 4.42, 143.25 0 M18.75 0 C45.38 0.42, 71.22 -1.89, 143.25 0 M143.25 0 C154.28 0.24, 163.99 4.5, 162 18.75 M143.25 0 C158.34 4.39, 160.19 3.23, 162 18.75 M162 18.75 C163.61 30.56, 159.26 39.97, 162 56.25 M162 18.75 C163.22 28.8, 161.96 35.86, 162 56.25 M162 56.25 C160.8 65.04, 157.09 71.05, 143.25 75 M162 56.25 C159.36 72.61, 154.23 77.99, 143.25 75 M143.25 75 C91.01 77.52, 43.36 79.24, 18.75 75 M143.25 75 C116.97 76.44, 94.28 75.07, 18.75 75 M18.75 75 C7.71 71.89, 1.64 67.1, 0 56.25 M18.75 75 C6.52 74.62, 2.21 72.12, 0 56.25 M0 56.25 C0.06 44.63, 2.34 29.23, 0 18.75 M0 56.25 C1.7 46.16, 1.44 36.37, 0 18.75 M0 18.75 C-2.56 6.06, 2.93 2.68, 18.75 0 M0 18.75 C3.69 3.13, 3.82 1.36, 18.75 0" stroke="#1e1e1e" stroke-width="2" fill="none"></path></g><g transform="translate(474.2491912841797 220.71401977539062) rotate(0 63.60795593261719 10)"><text x="63.60795593261719" y="0" font-family="Virgil, Segoe UI Emoji" font-size="16px" fill="#1e1e1e" text-anchor="middle" style="white-space: pre;" direction="ltr" dominant-baseline="text-before-edge">Remote Adapter</text></g><g stroke-linecap="round" transform="translate(239.21429443359375 127.10699462890625) rotate(0 65.5 53)"><path d="M47.99 -0.09 C56.87 -2.62, 70.46 0.12, 80.94 2.27 C91.42 4.42, 103.53 7.36, 110.86 12.8 C118.19 18.25, 121.37 27.07, 124.93 34.94 C128.49 42.82, 133.3 51.77, 132.22 60.05 C131.13 68.33, 124.46 78, 118.41 84.61 C112.37 91.23, 104.81 96.42, 95.96 99.72 C87.11 103.02, 75.37 104.58, 65.31 104.4 C55.24 104.23, 44.32 102.08, 35.56 98.66 C26.81 95.25, 18.67 90.55, 12.78 83.9 C6.88 77.24, 1.84 67, 0.21 58.71 C-1.43 50.42, -0.55 41.84, 2.97 34.16 C6.5 26.47, 8.69 17.91, 21.35 12.62 C34.01 7.33, 64.51 2.33, 78.94 2.41 C93.38 2.49, 108.06 12.55, 107.95 13.09 M34.86 5.8 C42.9 1.43, 54.81 2.13, 65.24 1.9 C75.68 1.66, 88.31 0.59, 97.47 4.4 C106.63 8.22, 114.79 17.18, 120.21 24.78 C125.62 32.39, 128.92 42.43, 129.97 50.02 C131.01 57.62, 130.23 62.81, 126.47 70.36 C122.71 77.91, 115.09 89.74, 107.43 95.33 C99.76 100.92, 89.98 102.73, 80.48 103.91 C70.98 105.09, 59.85 104.41, 50.44 102.41 C41.03 100.4, 32.03 97.12, 24.01 91.88 C16 86.63, 6.72 78.92, 2.35 70.92 C-2.03 62.91, -4.35 51.93, -2.25 43.85 C-0.14 35.76, 9.07 29.17, 15 22.4 C20.93 15.62, 29.61 5.93, 33.32 3.21 C37.02 0.49, 36.47 4.84, 37.23 6.06" stroke="none" stroke-width="0" fill="#b2f2bb"></path><path d="M102.71 7.14 C111.29 11.09, 116.92 20.13, 121.34 27.57 C125.76 35.01, 129.05 43.77, 129.24 51.8 C129.43 59.83, 126.58 68.25, 122.46 75.75 C118.35 83.25, 112.28 91.56, 104.55 96.8 C96.82 102.03, 86.26 106.12, 76.08 107.17 C65.89 108.21, 52.91 106.04, 43.43 103.08 C33.96 100.12, 26.05 95.31, 19.2 89.39 C12.35 83.48, 5.09 75.29, 2.36 67.58 C-0.37 59.86, 0.8 50.96, 2.82 43.11 C4.85 35.25, 8.11 26.66, 14.49 20.43 C20.87 14.21, 31.71 8.84, 41.1 5.76 C50.5 2.69, 58.3 0.12, 70.85 2.01 C83.39 3.89, 107.81 12.54, 116.36 17.05 C124.91 21.56, 123.04 28.68, 122.14 29.08 M106.84 8.63 C114.44 12.53, 120.76 21.75, 124.51 29.93 C128.26 38.11, 130.11 48.83, 129.37 57.72 C128.62 66.61, 125.27 76.1, 120.06 83.26 C114.84 90.42, 106.84 97.05, 98.08 100.7 C89.33 104.35, 77.19 104.86, 67.52 105.15 C57.84 105.44, 48.7 105.24, 40.03 102.45 C31.37 99.65, 22.41 94.91, 15.51 88.37 C8.6 81.83, 0.57 71.31, -1.4 63.22 C-3.38 55.12, 0.38 47.82, 3.63 39.78 C6.88 31.74, 11.22 21.38, 18.11 14.97 C25.01 8.56, 34.73 4.04, 45.01 1.3 C55.29 -1.45, 69.63 -3.56, 79.79 -1.48 C89.95 0.6, 101.48 12, 105.99 13.79 C110.5 15.59, 107.37 9.2, 106.86 9.29" stroke="#1e1e1e" stroke-width="1" fill="none"></path></g><g transform="translate(270.73881949194913 160.13033522601927) rotate(0 34.15998077392578 20)"><text x="34.15998077392578" y="0" font-family="Virgil, Segoe UI Emoji" font-size="16px" fill="#1e1e1e" text-anchor="middle" style="white-space: pre;" direction="ltr" dominant-baseline="text-before-edge">Load </text><text x="34.15998077392578" y="20" font-family="Virgil, Segoe UI Emoji" font-size="16px" fill="#1e1e1e" text-anchor="middle" style="white-space: pre;" direction="ltr" dominant-baseline="text-before-edge">Balancer</text></g><g stroke-linecap="round"><g transform="translate(157.50003051757812 55.702439577878295) rotate(0 37.969492007593345 53.77564886645132)"><path d="M1.75 -0.37 C14.08 17.87, 59.19 89.78, 71.5 108.12 M-0.74 -3.04 C12.67 15.61, 64.08 91.33, 76.68 110.59" stroke="#1e1e1e" stroke-width="1" fill="none"></path></g><g transform="translate(157.50003051757812 55.702439577878295) rotate(0 37.969492007593345 53.77564886645132)"><path d="M51.95 89.63 C54.4 98.99, 61.84 103.48, 74.91 112.35 M54.29 93.38 C60.96 96.83, 67.83 105.18, 77.34 110.63" stroke="#1e1e1e" stroke-width="1" fill="none"></path></g><g transform="translate(157.50003051757812 55.702439577878295) rotate(0 37.969492007593345 53.77564886645132)"><path d="M69 78.22 C67.72 90.23, 71.52 97.15, 74.91 112.35 M71.34 81.97 C72.29 89.25, 73.44 101.44, 77.34 110.63" stroke="#1e1e1e" stroke-width="1" fill="none"></path></g></g><mask></mask><g stroke-linecap="round"><g transform="translate(161.50009155273438 187.86701578505165) rotate(0 36.378946925293775 0.5707190170151648)"><path d="M1.43 2.06 C12.7 1.62, 57.66 -0.79, 68.89 -0.92 M-1.24 0.71 C10.77 0.34, 61.41 0.66, 74 1.22" stroke="#1e1e1e" stroke-width="1" fill="none"></path></g><g transform="translate(161.50009155273438 187.86701578505165) rotate(0 36.378946925293775 0.5707190170151648)"><path d="M48.54 7.46 C51.35 3.7, 64.28 3.89, 75.36 -2.16 M46.33 11.83 C57.57 5.81, 65.66 4.82, 74.46 2.89" stroke="#1e1e1e" stroke-width="1" fill="none"></path></g><g transform="translate(161.50009155273438 187.86701578505165) rotate(0 36.378946925293775 0.5707190170151648)"><path d="M48.98 -13.06 C51.9 -9.73, 64.67 -2.46, 75.36 -2.16 M46.78 -8.68 C58.13 -6.7, 66.04 0.32, 74.46 2.89" stroke="#1e1e1e" stroke-width="1" fill="none"></path></g></g><mask></mask><g stroke-linecap="round"><g transform="translate(160.9285888671875 330.60001830642113) rotate(0 34.39894682703721 -60.32096341544525)"><path d="M0.51 0.58 C11.42 -19.67, 54.97 -101.1, 65.83 -121.22 M-2.66 -1.57 C9.16 -21.5, 60.52 -99.08, 71.45 -118.36" stroke="#1e1e1e" stroke-width="1" fill="none"></path></g><g transform="translate(160.9285888671875 330.60001830642113) rotate(0 34.39894682703721 -60.32096341544525)"><path d="M66.14 -91.03 C65.16 -100.53, 68.61 -111.07, 68.32 -120.7 M63.61 -87.26 C67.84 -96.76, 71.01 -108.99, 71.01 -117.62" stroke="#1e1e1e" stroke-width="1" fill="none"></path></g><g transform="translate(160.9285888671875 330.60001830642113) rotate(0 34.39894682703721 -60.32096341544525)"><path d="M48.7 -101.85 C53.22 -108.03, 62.14 -115.17, 68.32 -120.7 M46.17 -98.08 C55.96 -103.93, 64.84 -112.6, 71.01 -117.62" stroke="#1e1e1e" stroke-width="1" fill="none"></path></g></g><mask></mask><g stroke-linecap="round"><g transform="translate(376.6652800882283 162.62319850696758) rotate(0 35.01110583645982 -24.871311663424365)"><path d="M-1.66 -1.8 C10.32 -10.71, 59.64 -45.06, 71.68 -53.14 M2.63 3.39 C14.31 -5.13, 58.77 -40.25, 69.75 -49.93" stroke="#1e1e1e" stroke-width="1" fill="none"></path></g><g transform="translate(376.6652800882283 162.62319850696758) rotate(0 35.01110583645982 -24.871311663424365)"><path d="M52 -23.25 C57.86 -32.17, 66.4 -38.32, 71.06 -47.74 M55.92 -23.31 C60.36 -31.85, 67.55 -44.96, 71.43 -48.07" stroke="#1e1e1e" stroke-width="1" fill="none"></path></g><g transform="translate(376.6652800882283 162.62319850696758) rotate(0 35.01110583645982 -24.871311663424365)"><path d="M38.92 -39.06 C48.65 -43.2, 61.03 -44.7, 71.06 -47.74 M42.84 -39.13 C52.4 -41.39, 64.56 -48.48, 71.43 -48.07" stroke="#1e1e1e" stroke-width="1" fill="none"></path></g></g><mask></mask><g stroke-linecap="round"><g transform="translate(379.8744211761416 180.72688590743826) rotate(0 34.27224035033282 29.61894163442372)"><path d="M-0.41 -1.45 C11.59 8.37, 60.73 47.76, 72.62 58.44 M-4.07 3.94 C7.71 14.06, 59.43 51.67, 71.7 60.68" stroke="#1e1e1e" stroke-width="1" fill="none"></path></g><g transform="translate(379.8744211761416 180.72688590743826) rotate(0 34.27224035033282 29.61894163442372)"><path d="M40.82 55.76 C48.53 56.16, 63.85 59.52, 72.82 57.33 M41.15 52.86 C50.17 52.9, 58.06 56.66, 69.82 61.76" stroke="#1e1e1e" stroke-width="1" fill="none"></path></g><g transform="translate(379.8744211761416 180.72688590743826) rotate(0 34.27224035033282 29.61894163442372)"><path d="M52.95 39.21 C56.68 44.92, 68.08 53.63, 72.82 57.33 M53.27 36.3 C58.91 41.05, 63.48 49.35, 69.82 61.76" stroke="#1e1e1e" stroke-width="1" fill="none"></path></g></g><mask></mask></svg>