<svg version="1.1" xmlns="http://www.w3.org/2000/svg" viewBox="0 0 476.95524491836886 379.5715026855469" width="476.95524491836886" height="379.5715026855469">
  <!-- svg-source:excalidraw -->
  
  <defs>
    <style class="style-fonts">
      @font-face {
        font-family: "Virgil";
        src: url("https://excalidraw.com/Virgil.woff2");
      }
      @font-face {
        font-family: "Cascadia";
        src: url("https://excalidraw.com/Cascadia.woff2");
      }
    </style>
    
  </defs>
  <rect x="0" y="0" width="476.95524491836886" height="379.5715026855469" fill="#ffffff"></rect><g stroke-linecap="round" transform="translate(308.95524491836886 141.5717010498047) rotate(0 79 48)"><path d="M27 -3.13 L132.56 -1.18 L151.44 3 L153.29 11.77 L160.81 21.54 L156.47 73.98 L157.18 88.66 L148.85 89.44 L131.94 97.21 L26.7 94.62 L6.29 88.73 L0.63 90.13 L-2.03 78.19 L4.18 14.43 L6.68 8.9 L16.31 2.78 L21.43 1.82" stroke="none" stroke-width="0" fill="#a5d8ff"></path><path d="M24 0 M24 0 C68.63 0.22, 108.24 3.05, 134 0 M24 0 C45.77 -1.92, 71.22 -0.71, 134 0 M134 0 C149.91 -0.75, 158.86 11.41, 158 24 M134 0 C149.45 -0.75, 158.17 10.7, 158 24 M158 24 C159.17 37.18, 157.66 46.7, 158 72 M158 24 C160.79 33.18, 157.37 44.46, 158 72 M158 72 C155.32 85.21, 151.18 98.32, 134 96 M158 72 C155.37 89.75, 150.07 92.41, 134 96 M134 96 C103.45 92.19, 64.72 96.03, 24 96 M134 96 C105.14 96.36, 75.22 98.18, 24 96 M24 96 C4.32 97.87, 2.59 87.12, 0 72 M24 96 C9.87 98.5, 3.84 90.35, 0 72 M0 72 C-1.96 59.27, 0.5 52.37, 0 24 M0 72 C0.99 61.03, 0.16 47.96, 0 24 M0 24 C0.91 9.55, 10.64 -1.26, 24 0 M0 24 C1.13 10.61, 10.86 -2.06, 24 0" stroke="#1e1e1e" stroke-width="1" fill="none"></path></g><g transform="translate(324.3472889857517 179.5717010498047) rotate(0 63.60795593261719 10)"><text x="63.60795593261719" y="0" font-family="Virgil, Segoe UI Emoji" font-size="16px" fill="#1e1e1e" text-anchor="middle" style="white-space: pre;" direction="ltr" dominant-baseline="text-before-edge">Remote Adapter</text></g><g stroke-linecap="round" transform="translate(10 10) rotate(0 68.19620158815167 82.21430969238281)"><path d="M34.81 -0.38 L110.55 2.9 L127.07 7.66 L130.37 14.48 L138.95 34.03 L136.62 129.25 L132.34 147.64 L126.6 158.54 L101.3 160.53 L21.76 167.43 L10.09 160.5 L8.3 147.99 L0.68 135.33 L3.31 25.78 L5.43 9.82 L21.32 2.63 L29.67 2.49" stroke="none" stroke-width="0" fill="#00cc22"></path><path d="M32 0 M32 0 C48.32 3.18, 73.23 -3.96, 104.39 0 M32 0 C49.96 -0.51, 68.45 1.57, 104.39 0 M104.39 0 C125.25 -0.65, 136.54 13.01, 136.39 32 M104.39 0 C123.6 -0.48, 135.22 12.13, 136.39 32 M136.39 32 C132.95 68.43, 138.36 101, 136.39 132.43 M136.39 32 C133.5 54.54, 135.43 81.03, 136.39 132.43 M136.39 132.43 C134.1 155.28, 125.79 161.3, 104.39 164.43 M136.39 132.43 C136.57 154.61, 125.23 167.73, 104.39 164.43 M104.39 164.43 C87.87 167.42, 76.99 165.81, 32 164.43 M104.39 164.43 C85.72 165.71, 72.03 164.33, 32 164.43 M32 164.43 C12.29 166.6, 3.34 155.8, 0 132.43 M32 164.43 C6.1 167.16, -3.1 152.16, 0 132.43 M0 132.43 C-2.4 110.27, 2.77 89.78, 0 32 M0 132.43 C0.24 97.09, 1.11 59.57, 0 32 M0 32 C0.99 12.94, 13.15 -1.8, 32 0 M0 32 C4.27 10.23, 8.54 -2.6, 32 0" stroke="#1e1e1e" stroke-width="1" fill="none"></path></g><g transform="translate(39.95764567994854 77.0595982283491) rotate(0 38.238555908203125 15.15471146403371)"><text x="38.238555908203125" y="0" font-family="Virgil, Segoe UI Emoji" font-size="12.123769171226959px" fill="#1e1e1e" text-anchor="middle" style="white-space: pre;" direction="ltr" dominant-baseline="text-before-edge">Lightsteamer</text><text x="38.238555908203125" y="15.1547114640337" font-family="Virgil, Segoe UI Emoji" font-size="12.123769171226959px" fill="#1e1e1e" text-anchor="middle" style="white-space: pre;" direction="ltr" dominant-baseline="text-before-edge">Kernel</text></g><g stroke-linecap="round" transform="translate(121.29656539566827 47.69950060634392) rotate(0 49.5 46)"><path d="M26.18 3.16 L79.87 2.33 L95.81 7.78 L97.79 9.75 L96.94 24.21 L101.34 73.01 L90.16 82.35 L83.32 94.07 L73.59 92.57 L21.41 87.7 L6.43 89.15 L3.17 75.67 L-2.21 19.43 L9.07 6.38 L10.61 3.93 L21.94 -0.03" stroke="none" stroke-width="0" fill="#ffec99"></path><path d="M23 0 M23 0 C42.88 -4.33, 57.44 -0.31, 76 0 M23 0 C39.84 1.9, 55.58 -0.13, 76 0 M76 0 C91.48 2.35, 97.15 7.25, 99 23 M76 0 C90.16 1.46, 100.14 7.39, 99 23 M99 23 C100.32 38.63, 95.77 43.68, 99 69 M99 23 C98.97 37.09, 97.24 49.62, 99 69 M99 69 C99.06 81.21, 91.49 92.74, 76 92 M99 69 C98.5 87.64, 87.23 89.19, 76 92 M76 92 C62.85 94.05, 40.8 93.22, 23 92 M76 92 C60.13 92.06, 42.48 93.58, 23 92 M23 92 C11 94.04, -3.97 86.71, 0 69 M23 92 C4.56 90.4, -3.56 85.56, 0 69 M0 69 C3.74 57.7, 2.81 42.65, 0 23 M0 69 C1.11 53.93, 0.28 41.25, 0 23 M0 23 C2.49 5.87, 11.38 -0.38, 23 0 M0 23 C-2.13 5.07, 11.2 -3.34, 23 0" stroke="#1e1e1e" stroke-width="1" fill="none"></path></g><g transform="translate(146.9989656031878 78.54478914231021) rotate(0 23.79759979248047 15.15471146403371)"><text x="23.79759979248047" y="0" font-family="Virgil, Segoe UI Emoji" font-size="12.123769171226959px" fill="#1e1e1e" text-anchor="middle" style="white-space: pre;" direction="ltr" dominant-baseline="text-before-edge">Proxy </text><text x="23.79759979248047" y="15.1547114640337" font-family="Virgil, Segoe UI Emoji" font-size="12.123769171226959px" fill="#1e1e1e" text-anchor="middle" style="white-space: pre;" direction="ltr" dominant-baseline="text-before-edge">Adapter</text></g><g stroke-linecap="round" transform="translate(10.28570556640625 205.14288330078125) rotate(0 68.19620158815167 82.21430969238281)"><path d="M34.56 2.03 L112.12 -2.68 L121.84 5.71 L134.6 11.12 L133.3 28.1 L133.65 135.93 L131.98 147 L127.69 155.99 L105.07 167.33 L27.31 165.21 L9.93 161.74 L7.82 152.55 L-2.33 134.92 L-0.56 24.47 L9.77 4.52 L21.82 3.64 L28.68 -2.05" stroke="none" stroke-width="0" fill="#00cc22"></path><path d="M32 0 M32 0 C54.24 0.89, 81.38 -0.45, 104.39 0 M32 0 C51.62 -1.06, 72.57 -0.22, 104.39 0 M104.39 0 C126.72 -0.24, 134.73 7.35, 136.39 32 M104.39 0 C130.1 2.4, 140.7 7.83, 136.39 32 M136.39 32 C133.22 55.54, 138.34 74.44, 136.39 132.43 M136.39 32 C136.5 66.32, 136.21 101.33, 136.39 132.43 M136.39 132.43 C132.82 151.32, 125.99 163.16, 104.39 164.43 M136.39 132.43 C139.72 157.33, 127.2 161.32, 104.39 164.43 M104.39 164.43 C83.73 165.68, 58.44 164.72, 32 164.43 M104.39 164.43 C76.75 166.35, 51.74 164.47, 32 164.43 M32 164.43 C7.57 165.5, -0.36 151.89, 0 132.43 M32 164.43 C10.9 168.23, 2.39 156.5, 0 132.43 M0 132.43 C1.27 103.88, -1.54 71.03, 0 32 M0 132.43 C0.61 96.4, -2.17 59.63, 0 32 M0 32 C3.07 7.76, 13.06 -1.42, 32 0 M0 32 C-2.77 13.71, 8.98 0.45, 32 0" stroke="#1e1e1e" stroke-width="1" fill="none"></path></g><g transform="translate(40.24335124635479 272.20248152913035) rotate(0 38.238555908203125 15.15471146403371)"><text x="38.238555908203125" y="0" font-family="Virgil, Segoe UI Emoji" font-size="12.123769171226959px" fill="#1e1e1e" text-anchor="middle" style="white-space: pre;" direction="ltr" dominant-baseline="text-before-edge">Lightsteamer</text><text x="38.238555908203125" y="15.1547114640337" font-family="Virgil, Segoe UI Emoji" font-size="12.123769171226959px" fill="#1e1e1e" text-anchor="middle" style="white-space: pre;" direction="ltr" dominant-baseline="text-before-edge">Kernel</text></g><g stroke-linecap="round" transform="translate(121.58227096207452 242.84238390712517) rotate(0 49.5 46)"><path d="M20.94 1.21 L84.09 -1.03 L90.16 1.85 L94.82 16.44 L96.59 23.57 L102.44 70.45 L93.93 89.15 L88.87 91.85 L73.43 93.82 L20.93 92.27 L3.42 88.74 L-0.7 74.36 L2.13 14.13 L9.57 7.39 L9.62 -0.61 L23.7 0.38" stroke="none" stroke-width="0" fill="#ffec99"></path><path d="M23 0 M23 0 C42.19 -0.71, 53.9 -0.08, 76 0 M23 0 C41.5 0.74, 61.52 -0.01, 76 0 M76 0 C89.67 -3.32, 102.81 9.75, 99 23 M76 0 C95.64 -2.84, 95.44 6.79, 99 23 M99 23 C100.68 31.43, 99.88 44.5, 99 69 M99 23 C98.82 34.64, 97.25 42.19, 99 69 M99 69 C99.26 83.06, 94.22 95.1, 76 92 M99 69 C100.48 81.23, 91.85 93.1, 76 92 M76 92 C64.1 94.31, 56.13 96.02, 23 92 M76 92 C56.05 91.93, 37.24 93.16, 23 92 M23 92 C7.31 90.13, 0.2 87.64, 0 69 M23 92 C10.06 94.74, 0.49 84.97, 0 69 M0 69 C-1.62 55.14, 1.92 41.78, 0 23 M0 69 C-1.78 56.14, 0.68 44.08, 0 23 M0 23 C2.4 6.25, 5.26 2.65, 23 0 M0 23 C-1.68 8.11, 10.41 0.77, 23 0" stroke="#1e1e1e" stroke-width="1" fill="none"></path></g><g transform="translate(147.28467116959405 273.68767244309146) rotate(0 23.79759979248047 15.15471146403371)"><text x="23.79759979248047" y="0" font-family="Virgil, Segoe UI Emoji" font-size="12.123769171226959px" fill="#1e1e1e" text-anchor="middle" style="white-space: pre;" direction="ltr" dominant-baseline="text-before-edge">Proxy </text><text x="23.79759979248047" y="15.1547114640337" font-family="Virgil, Segoe UI Emoji" font-size="12.123769171226959px" fill="#1e1e1e" text-anchor="middle" style="white-space: pre;" direction="ltr" dominant-baseline="text-before-edge">Adapter</text></g><g stroke-linecap="round"><g transform="translate(297.3835286097751 186.81753075872058) rotate(0 -32.45991130590437 -41.35660656846659)"><path d="M-0.82 1.05 C-11.65 -12.71, -55.34 -69.4, -65.87 -83.76 M0.95 0.56 C-9.41 -12.89, -52.68 -67.97, -63.53 -82.14" stroke="#1e1e1e" stroke-width="1" fill="none"></path></g><g transform="translate(297.3835286097751 186.81753075872058) rotate(0 -32.45991130590437 -41.35660656846659)"><path d="M-24.41 -16.21 C-20.39 -9.36, -17 -7.34, 0.63 2.46 M-25.33 -14.85 C-18.43 -9.17, -9.7 -4.46, -0.38 0.18" stroke="#1e1e1e" stroke-width="1" fill="none"></path></g><g transform="translate(297.3835286097751 186.81753075872058) rotate(0 -32.45991130590437 -41.35660656846659)"><path d="M-8.16 -28.74 C-7.88 -19.21, -8.11 -14.4, 0.63 2.46 M-9.08 -27.38 C-7.66 -17.46, -4.32 -8.6, -0.38 0.18" stroke="#1e1e1e" stroke-width="1" fill="none"></path></g></g><mask></mask><g stroke-linecap="round"><g transform="translate(294.8119954066501 213.78792198853432) rotate(0 -31.62665035627782 37.124693610207345)"><path d="M-0.72 0.17 C-11.25 12.35, -53.3 61.45, -64 74.12 M1.1 -0.79 C-9.42 12.01, -53.24 62.52, -64.35 75.03" stroke="#1e1e1e" stroke-width="1" fill="none"></path></g><g transform="translate(294.8119954066501 213.78792198853432) rotate(0 -31.62665035627782 37.124693610207345)"><path d="M-11 30.15 C-11.05 22.16, -5.19 16.72, -0.08 -1.11 M-11.86 28.87 C-8.13 18.53, -3.78 7.97, 0.23 0.58" stroke="#1e1e1e" stroke-width="1" fill="none"></path></g><g transform="translate(294.8119954066501 213.78792198853432) rotate(0 -31.62665035627782 37.124693610207345)"><path d="M-26.58 16.8 C-22.91 11.99, -13.44 9.64, -0.08 -1.11 M-27.44 15.52 C-18.22 9.76, -8.48 3.81, 0.23 0.58" stroke="#1e1e1e" stroke-width="1" fill="none"></path></g></g><mask></mask></svg>