<svg version="1.1" xmlns="http://www.w3.org/2000/svg" viewBox="0 0 1043.5712890625 357" width="1043.5712890625" height="357">
  <!-- svg-source:excalidraw -->
  
  <defs>
    <style class="style-fonts">
      @font-face {
        font-family: "Virgil";
        src: url("https://excalidraw.com/Virgil.woff2");
      }
      @font-face {
        font-family: "Cascadia";
        src: url("https://excalidraw.com/Cascadia.woff2");
      }
    </style>
    
  </defs>
  <rect x="0" y="0" width="1043.5712890625" height="357" fill="#ffffff"></rect><g stroke-linecap="round" transform="translate(118.5712890625 10) rotate(0 457.5 168.5)"><path d="M32 0 M32 0 C207.62 0.51, 383.31 -0.01, 883 0 M32 0 C212.79 -3.12, 393.89 -3.1, 883 0 M883 0 C903.88 0.08, 915.92 11.58, 915 32 M883 0 C902.77 -0.05, 912.99 12.56, 915 32 M915 32 C914.61 114.4, 913.88 194.38, 915 305 M915 32 C914.36 125.75, 913.89 219.82, 915 305 M915 305 C913.88 324.38, 903.08 338.23, 883 337 M915 305 C915.38 327.79, 905.83 336.25, 883 337 M883 337 C552.94 340.2, 222.29 339.31, 32 337 M883 337 C637.83 336.79, 392.03 336.83, 32 337 M32 337 C11.21 335.03, -1.81 326.38, 0 305 M32 337 C10.74 337.87, -0.14 327.59, 0 305 M0 305 C2.86 227.29, 2.34 151.82, 0 32 M0 305 C-0.16 227.3, 0.41 151.51, 0 32 M0 32 C0.45 11.05, 8.82 -1.12, 32 0 M0 32 C1.15 11.52, 11.5 -0.3, 32 0" stroke="#1e1e1e" stroke-width="1" fill="none"></path></g><g transform="translate(878.2513885498047 322) rotate(0 75.15995025634766 10)"><text x="150.3199005126953" y="0" font-family="Virgil, Segoe UI Emoji" font-size="16px" fill="#1e1e1e" text-anchor="end" style="white-space: pre;" direction="ltr" dominant-baseline="text-before-edge">Kubernetes Cluster</text></g><g stroke-linecap="round" transform="translate(293.9997253417969 133.2855987548828) rotate(0 85.5 45)"><path d="M123.32 4.14 C134.22 6.25, 144.57 12.41, 152.14 17.75 C159.72 23.09, 165.92 29.93, 168.76 36.17 C171.61 42.4, 171.92 49.03, 169.2 55.15 C166.48 61.27, 160.44 67.67, 152.42 72.9 C144.4 78.14, 132.37 83.77, 121.09 86.57 C109.8 89.36, 97.02 89.71, 84.71 89.66 C72.4 89.61, 58.45 89.22, 47.22 86.27 C35.99 83.32, 24.89 77.13, 17.32 71.96 C9.74 66.79, 4.31 61.6, 1.78 55.28 C-0.75 48.95, -0.7 40.52, 2.11 33.99 C4.92 27.46, 10.93 21.14, 18.65 16.11 C26.36 11.08, 37.1 6.42, 48.4 3.81 C59.7 1.19, 72.93 -0.04, 86.46 0.43 C99.98 0.9, 121.36 5.26, 129.55 6.63 C137.74 7.99, 136.22 8.05, 135.61 8.63 M50.33 4.04 C60.71 0.78, 75.08 -0.64, 87.24 -0.75 C99.4 -0.86, 112.36 0.32, 123.28 3.39 C134.2 6.45, 145.04 12.39, 152.78 17.63 C160.53 22.87, 167.11 28.66, 169.74 34.84 C172.36 41.03, 171.54 48.26, 168.51 54.75 C165.48 61.25, 159.65 68.66, 151.55 73.82 C143.46 78.99, 131.4 83.17, 119.94 85.74 C108.48 88.31, 95 89.32, 82.78 89.25 C70.56 89.18, 57.4 88.12, 46.59 85.34 C35.79 82.55, 25.45 77.52, 17.95 72.54 C10.44 67.55, 4.01 61.96, 1.57 55.42 C-0.88 48.87, 0.21 39.67, 3.28 33.27 C6.34 26.87, 12.23 22.12, 19.96 17.02 C27.7 11.92, 44.78 4.66, 49.67 2.68 C54.57 0.69, 48.92 4.27, 49.32 5.12" stroke="none" stroke-width="0" fill="#ffec99"></path><path d="M121.43 4 C132.5 6.06, 143.12 11.32, 151.13 16.29 C159.15 21.26, 166.67 27.4, 169.51 33.8 C172.34 40.21, 170.91 48.14, 168.14 54.72 C165.37 61.3, 160.47 68.35, 152.88 73.3 C145.28 78.25, 133.67 81.48, 122.58 84.42 C111.48 87.37, 98.58 90.7, 86.3 90.99 C74.03 91.28, 60.06 88.95, 48.91 86.15 C37.76 83.35, 27.18 79.2, 19.41 74.2 C11.63 69.2, 5.15 62.53, 2.25 56.15 C-0.66 49.77, -0.54 42.37, 1.96 35.92 C4.46 29.46, 9.78 22.67, 17.25 17.41 C24.72 12.16, 35.56 7.38, 46.78 4.4 C57.99 1.42, 71.85 -0.58, 84.56 -0.45 C97.26 -0.32, 116.08 4.15, 122.99 5.18 C129.89 6.2, 126.51 5.18, 125.98 5.69 M68.44 0.61 C79.75 -1.39, 93.79 0.15, 105.8 1.92 C117.82 3.68, 131.06 7.07, 140.55 11.23 C150.04 15.38, 157.62 20.89, 162.75 26.85 C167.88 32.8, 171.36 40.28, 171.31 46.95 C171.26 53.63, 168.16 61.2, 162.45 66.9 C156.73 72.6, 146.97 77.34, 137.03 81.15 C127.1 84.96, 114.74 88.59, 102.85 89.73 C90.96 90.87, 77.73 89.85, 65.67 87.99 C53.62 86.13, 40.26 82.64, 30.51 78.58 C20.77 74.53, 12.34 69.39, 7.19 63.65 C2.03 57.9, -0.7 50.84, -0.44 44.09 C-0.17 37.35, 3.29 29.13, 8.76 23.18 C14.23 17.22, 22.35 12.27, 32.41 8.37 C42.47 4.48, 62.97 0.92, 69.11 -0.2 C75.25 -1.31, 68.97 0.98, 69.26 1.68" stroke="#1e1e1e" stroke-width="1" fill="none"></path></g><g transform="translate(325.62213552837443 158.46579360148814) rotate(0 53.919960021972656 20)"><text x="53.919960021972656" y="0" font-family="Virgil, Segoe UI Emoji" font-size="16px" fill="#1e1e1e" text-anchor="middle" style="white-space: pre;" direction="ltr" dominant-baseline="text-before-edge">Lightstreamer</text><text x="53.919960021972656" y="20" font-family="Virgil, Segoe UI Emoji" font-size="16px" fill="#1e1e1e" text-anchor="middle" style="white-space: pre;" direction="ltr" dominant-baseline="text-before-edge">Service</text></g><g stroke-linecap="round" transform="translate(690.2854919433594 116.42872619628906) rotate(0 67.5 55)"><path d="M82.01 0.96 C91.76 1.9, 102.25 7.16, 110.35 12.61 C118.44 18.05, 126.66 25.85, 130.56 33.64 C134.47 41.43, 134.8 50.76, 133.78 59.33 C132.76 67.89, 130.02 77.69, 124.45 85.02 C118.88 92.36, 109.63 99.14, 100.34 103.32 C91.05 107.51, 78.97 110.12, 68.71 110.15 C58.45 110.17, 48.09 107.08, 38.77 103.47 C29.46 99.86, 19.24 95.21, 12.81 88.46 C6.37 81.72, 1.85 71.49, 0.19 63.01 C-1.47 54.53, -0.51 45.45, 2.84 37.56 C6.18 29.68, 12.66 21.71, 20.27 15.69 C27.87 9.67, 36.46 3.34, 48.46 1.45 C60.46 -0.43, 83.66 3.44, 92.27 4.38 C100.87 5.33, 100.52 6.36, 100.1 7.13 M39.05 5.26 C47.34 0.89, 60.11 -1.38, 70.29 -0.78 C80.47 -0.18, 90.92 4.37, 100.12 8.85 C109.31 13.32, 119.6 19.32, 125.45 26.07 C131.29 32.81, 134.33 40.64, 135.19 49.31 C136.06 57.98, 134.74 70.07, 130.66 78.07 C126.58 86.07, 118.88 92.25, 110.73 97.29 C102.58 102.33, 92.35 106.68, 81.77 108.29 C71.2 109.91, 57.66 109.04, 47.3 106.99 C36.93 104.94, 27.02 101.54, 19.57 96 C12.12 90.45, 5.72 82.19, 2.6 73.71 C-0.51 65.23, -1.2 53.78, 0.87 45.14 C2.95 36.5, 8.52 28.52, 15.07 21.85 C21.62 15.19, 35.9 7.62, 40.15 5.15 C44.41 2.68, 40.19 6.42, 40.59 7.04" stroke="none" stroke-width="0" fill="#ffec99"></path><path d="M35.68 6.15 C44.04 1.55, 56.17 -0.64, 66.75 -0.63 C77.33 -0.62, 89.74 2.32, 99.17 6.22 C108.6 10.11, 117.62 15.86, 123.34 22.74 C129.06 29.62, 132.26 38.91, 133.48 47.49 C134.69 56.07, 134.21 66.15, 130.63 74.22 C127.04 82.29, 119.67 90.29, 111.96 95.93 C104.24 101.56, 94.31 105.96, 84.32 108.02 C74.34 110.07, 62.24 110.06, 52.03 108.24 C41.82 106.42, 31.05 102.7, 23.05 97.11 C15.05 91.52, 7.79 82.59, 4.05 74.71 C0.31 66.83, -0.55 58.35, 0.6 49.84 C1.74 41.33, 4.54 31.19, 10.92 23.67 C17.3 16.15, 33.35 7.94, 38.87 4.73 C44.4 1.51, 43.56 3.32, 44.08 4.39 M50.93 0.85 C60.17 -1.7, 72.69 0.98, 82.75 2.9 C92.81 4.82, 103.47 6.89, 111.32 12.35 C119.17 17.8, 125.76 27.32, 129.86 35.62 C133.96 43.92, 136.81 53.73, 135.93 62.15 C135.06 70.57, 130.54 79.33, 124.6 86.12 C118.67 92.9, 109.67 98.92, 100.33 102.87 C90.98 106.82, 79.08 109.39, 68.54 109.81 C57.99 110.24, 46.37 109.36, 37.05 105.4 C27.73 101.44, 18.47 93.3, 12.61 86.06 C6.76 78.82, 3.1 70.53, 1.91 61.97 C0.71 53.41, 1.99 42.53, 5.45 34.71 C8.9 26.89, 15.19 20.81, 22.64 15.07 C30.09 9.32, 45.5 2.4, 50.14 0.23 C54.78 -1.93, 50.14 1.11, 50.5 2.06" stroke="#1e1e1e" stroke-width="1" fill="none"></path></g><g transform="translate(720.4198055145368 151.53785323102898) rotate(0 37.13597869873047 20)"><text x="37.13597869873047" y="0" font-family="Virgil, Segoe UI Emoji" font-size="16px" fill="#1e1e1e" text-anchor="middle" style="white-space: pre;" direction="ltr" dominant-baseline="text-before-edge">StockList</text><text x="37.13597869873047" y="20" font-family="Virgil, Segoe UI Emoji" font-size="16px" fill="#1e1e1e" text-anchor="middle" style="white-space: pre;" direction="ltr" dominant-baseline="text-before-edge">Service</text></g><g stroke-linecap="round" transform="translate(153.99996948242188 141.4287872314453) rotate(0 47 36)"><path d="M19.43 -0.68 L74.58 -0.27 L83.27 -0.28 L89.1 4.13 L91.06 9.38 L94.95 18.03 L91.82 56.34 L89.3 68.16 L85.57 72.16 L76.54 73.49 L17.72 70.13 L10.92 71.68 L5.63 66.82 L1.67 59.35 L-0.58 12.56 L4.88 3.82 L11.27 0.88 L17.04 0.48" stroke="none" stroke-width="0" fill="#ffc9c9"></path><path d="M18 0 M18 0 C31.88 1.95, 47.26 0.55, 76 0 M18 0 C39.89 -0.77, 61.34 -0.35, 76 0 M76 0 C88.34 -1.11, 95.9 7.59, 94 18 M76 0 C89.18 1.64, 93.75 4.84, 94 18 M94 18 C94.24 28.65, 94.16 40.41, 94 54 M94 18 C92.93 27.09, 94.08 36.88, 94 54 M94 54 C92.05 67.04, 87.88 73.25, 76 72 M94 54 C96 65.59, 89.4 70.79, 76 72 M76 72 C59.19 73.5, 43.59 71.06, 18 72 M76 72 C59.26 72.73, 41.84 71.39, 18 72 M18 72 C5.46 71.44, 0.42 65, 0 54 M18 72 C5.95 73.08, 0.29 63.74, 0 54 M0 54 C-0.58 44.21, 0.63 31.64, 0 18 M0 54 C0.18 43.3, -0.66 33.99, 0 18 M0 18 C0.31 6.19, 6.7 1.94, 18 0 M0 18 C-0.01 4.48, 6.02 -0.92, 18 0" stroke="#1e1e1e" stroke-width="1" fill="none"></path></g><g transform="translate(172.39199829101562 167.4287872314453) rotate(0 28.60797119140625 10)"><text x="28.60797119140625" y="0" font-family="Virgil, Segoe UI Emoji" font-size="16px" fill="#1e1e1e" text-anchor="middle" style="white-space: pre;" direction="ltr" dominant-baseline="text-before-edge">Ingress</text></g><g stroke-linecap="round" transform="translate(10 34.99998474121094) rotate(0 39 33.5)"><path d="M16.86 1.25 L65.32 0.94 L73.92 3.3 L78.25 8.32 L76.87 14.81 L76.95 54.07 L73.25 63.35 L69.37 64.44 L61.37 65.23 L12.08 66.46 L4.71 60.84 L0.36 55.01 L-0.23 12.87 L3.26 5.5 L10.68 0.66 L16.98 0.83" stroke="none" stroke-width="0" fill="#fd7e14"></path><path d="M16.75 0 M16.75 0 C34.1 -0.36, 49.64 -1.7, 61.25 0 M16.75 0 C31.89 0.13, 47.37 0.54, 61.25 0 M61.25 0 C74.04 -1.05, 76.58 4.3, 78 16.75 M61.25 0 C72.79 0.88, 77.94 7.71, 78 16.75 M78 16.75 C78.04 26.78, 77.08 35.27, 78 50.25 M78 16.75 C77.59 23.18, 77.22 31.46, 78 50.25 M78 50.25 C79.4 60.74, 72.82 67.55, 61.25 67 M78 50.25 C78.47 59.68, 71.72 69.15, 61.25 67 M61.25 67 C47.44 65.88, 36.23 68.09, 16.75 67 M61.25 67 C51.63 66.24, 41.68 66.43, 16.75 67 M16.75 67 C4.74 66.77, 0.11 60.63, 0 50.25 M16.75 67 C5.21 67.82, 0.72 61.46, 0 50.25 M0 50.25 C0.98 39.8, 0.27 29.56, 0 16.75 M0 50.25 C0.83 43.22, -0.55 36.2, 0 16.75 M0 16.75 C-0.65 7.34, 5.47 -1.43, 16.75 0 M0 16.75 C-0.78 7.16, 4.64 -2.27, 16.75 0" stroke="#1e1e1e" stroke-width="1" fill="none"></path></g><g transform="translate(21.328033447265625 48.49998474121094) rotate(0 27.671966552734375 20)"><text x="27.671966552734375" y="0" font-family="Virgil, Segoe UI Emoji" font-size="16px" fill="#1e1e1e" text-anchor="middle" style="white-space: pre;" direction="ltr" dominant-baseline="text-before-edge">Node.js</text><text x="27.671966552734375" y="20" font-family="Virgil, Segoe UI Emoji" font-size="16px" fill="#1e1e1e" text-anchor="middle" style="white-space: pre;" direction="ltr" dominant-baseline="text-before-edge">Client</text></g><g stroke-linecap="round" transform="translate(14.85723876953125 138.14283752441406) rotate(0 39 33.5)"><path d="M18.68 -0.73 L65.3 1.43 L75.15 4.66 L78.94 9.8 L77.91 18.33 L77.73 55.93 L75.48 63.76 L69.11 67.01 L61.1 66.22 L13.01 66.05 L3.1 64.14 L0.05 55.03 L0.79 11.3 L2.55 3.44 L11.01 -0.81 L15.91 -0.59" stroke="none" stroke-width="0" fill="#fd7e14"></path><path d="M16.75 0 M16.75 0 C30.07 1.82, 44.85 1.65, 61.25 0 M16.75 0 C32.48 -1.12, 46.88 0.53, 61.25 0 M61.25 0 C73.84 1.95, 77.32 5.72, 78 16.75 M61.25 0 C74.55 -1.3, 78.15 5.53, 78 16.75 M78 16.75 C76.54 26.41, 78.31 38.9, 78 50.25 M78 16.75 C78.81 30.52, 77.11 42.13, 78 50.25 M78 50.25 C78.35 59.57, 70.66 67.57, 61.25 67 M78 50.25 C79.16 59.39, 71.19 65.15, 61.25 67 M61.25 67 C50.75 66.26, 37.87 66.89, 16.75 67 M61.25 67 C47.19 66.6, 34.28 67.57, 16.75 67 M16.75 67 C6.81 68.7, -1.85 61.92, 0 50.25 M16.75 67 C4.22 65.65, -0.25 60.58, 0 50.25 M0 50.25 C-0.67 36.07, 1.04 24.4, 0 16.75 M0 50.25 C-0.16 36.91, 0.09 23.11, 0 16.75 M0 16.75 C0.6 5.65, 4.8 1.19, 16.75 0 M0 16.75 C-1.41 4.4, 4.66 -0.76, 16.75 0" stroke="#1e1e1e" stroke-width="1" fill="none"></path></g><g transform="translate(26.185272216796875 151.64283752441406) rotate(0 27.671966552734375 20)"><text x="27.671966552734375" y="0" font-family="Virgil, Segoe UI Emoji" font-size="16px" fill="#1e1e1e" text-anchor="middle" style="white-space: pre;" direction="ltr" dominant-baseline="text-before-edge">Node.js</text><text x="27.671966552734375" y="20" font-family="Virgil, Segoe UI Emoji" font-size="16px" fill="#1e1e1e" text-anchor="middle" style="white-space: pre;" direction="ltr" dominant-baseline="text-before-edge">Client</text></g><g stroke-linecap="round" transform="translate(21.42864990234375 242.42845153808594) rotate(0 39 33.5)"><path d="M14.99 0.57 L66.18 -1.5 L72.75 2.57 L75.87 10.06 L79.97 17.19 L76.56 52.67 L73.26 63.06 L69.25 67.2 L60.94 65.64 L14.47 67.32 L5.41 64.52 L-1.59 54.68 L-0.93 11.65 L3.97 3.46 L10.84 1.71 L16.14 -0.56" stroke="none" stroke-width="0" fill="#fd7e14"></path><path d="M16.75 0 M16.75 0 C28.04 0.92, 35.17 0.14, 61.25 0 M16.75 0 C29.49 0.42, 41.23 0.98, 61.25 0 M61.25 0 C71.19 -1.03, 77.2 4.92, 78 16.75 M61.25 0 C73.98 -2.03, 78.73 6.8, 78 16.75 M78 16.75 C80.01 25.84, 79.13 31.94, 78 50.25 M78 16.75 C78.1 25.4, 78.68 34.63, 78 50.25 M78 50.25 C78.33 60.95, 72.59 67.28, 61.25 67 M78 50.25 C76.83 62.81, 71.18 65.39, 61.25 67 M61.25 67 C48.07 68.57, 36.73 65.32, 16.75 67 M61.25 67 C44.67 66.2, 28.13 66.61, 16.75 67 M16.75 67 C6.57 67.77, 0.37 61.03, 0 50.25 M16.75 67 C5.34 66.63, 1.43 61.48, 0 50.25 M0 50.25 C0.12 40.15, 0.4 26.15, 0 16.75 M0 50.25 C-0.86 42.27, 0.34 32.87, 0 16.75 M0 16.75 C0.59 6.67, 3.9 -0.53, 16.75 0 M0 16.75 C-1.52 6.49, 3.95 1.04, 16.75 0" stroke="#1e1e1e" stroke-width="1" fill="none"></path></g><g transform="translate(32.756683349609375 255.92845153808594) rotate(0 27.671966552734375 20)"><text x="27.671966552734375" y="0" font-family="Virgil, Segoe UI Emoji" font-size="16px" fill="#1e1e1e" text-anchor="middle" style="white-space: pre;" direction="ltr" dominant-baseline="text-before-edge">Node.js</text><text x="27.671966552734375" y="20" font-family="Virgil, Segoe UI Emoji" font-size="16px" fill="#1e1e1e" text-anchor="middle" style="white-space: pre;" direction="ltr" dominant-baseline="text-before-edge">Client</text></g><g stroke-linecap="round" transform="translate(497.9999694824219 31.571487426757812) rotate(0 66 39.5)"><path d="M19.77 1.12 L111.22 0.06 L122.83 4.35 L129.9 8.14 L131.74 13.72 L131.68 57.93 L129.7 70.66 L125.08 77.12 L114.24 79.4 L19.77 80.43 L6.68 77.62 L1.38 72.23 L0.3 63.3 L1.32 15.46 L6.84 3.72 L12.01 0.08 L19.48 1.08" stroke="none" stroke-width="0" fill="#00cc22"></path><path d="M19.75 0 M19.75 0 C42.94 1.64, 69.14 -1.98, 112.25 0 M19.75 0 C43.27 -1.19, 68.28 -0.66, 112.25 0 M112.25 0 C125.95 0.39, 130.77 8.36, 132 19.75 M112.25 0 C126.7 -2.12, 130.94 8.85, 132 19.75 M132 19.75 C131.45 27.49, 130.4 38.39, 132 59.25 M132 19.75 C132.46 32.33, 132.65 44.49, 132 59.25 M132 59.25 C130.19 71.33, 124.88 79.88, 112.25 79 M132 59.25 C131.66 74.25, 126.86 80.5, 112.25 79 M112.25 79 C75.49 79.48, 39.56 78.12, 19.75 79 M112.25 79 C82.51 79.75, 51.9 79.95, 19.75 79 M19.75 79 C4.91 77.31, -1.95 71.61, 0 59.25 M19.75 79 C4.41 77, -1.42 74.18, 0 59.25 M0 59.25 C-0.89 51.22, 1.52 41.2, 0 19.75 M0 59.25 C1.05 43.69, 0.08 29.76, 0 19.75 M0 19.75 C-1.21 5.51, 5.2 -1.78, 19.75 0 M0 19.75 C-1.86 4.44, 8.08 -1.84, 19.75 0" stroke="#1e1e1e" stroke-width="1" fill="none"></path></g><g transform="translate(505.5360107421875 51.07148742675781) rotate(0 58.463958740234375 20)"><text x="58.463958740234375" y="0" font-family="Virgil, Segoe UI Emoji" font-size="16px" fill="#1e1e1e" text-anchor="middle" style="white-space: pre;" direction="ltr" dominant-baseline="text-before-edge">Liughtstreamer</text><text x="58.463958740234375" y="20" font-family="Virgil, Segoe UI Emoji" font-size="16px" fill="#1e1e1e" text-anchor="middle" style="white-space: pre;" direction="ltr" dominant-baseline="text-before-edge">Server Pod</text></g><g stroke-linecap="round" transform="translate(506.8568420410156 135.85716247558594) rotate(0 66 39.5)"><path d="M21.13 -0.57 L112.5 0.7 L124.44 1.65 L127.65 6.18 L132.99 16.76 L131.32 59.01 L130.05 70.25 L123.62 75.91 L111.29 77.28 L17.92 77.53 L6.23 77.47 L3.57 71.1 L-1.57 65.63 L-0.24 15.39 L3.94 4.82 L10.8 1.11 L18.33 -0.04" stroke="none" stroke-width="0" fill="#00cc22"></path><path d="M19.75 0 M19.75 0 C40.23 1.17, 60.07 0.68, 112.25 0 M19.75 0 C49.99 0.47, 78.22 1.03, 112.25 0 M112.25 0 C123.64 1.76, 131.91 7.34, 132 19.75 M112.25 0 C123.71 -0.02, 133.81 4.9, 132 19.75 M132 19.75 C133.02 33.51, 131.36 44.61, 132 59.25 M132 19.75 C131.12 29.9, 132.34 37.79, 132 59.25 M132 59.25 C130.44 72.9, 126.85 77.03, 112.25 79 M132 59.25 C133.99 70.52, 124.5 80.17, 112.25 79 M112.25 79 C78.89 78.71, 46.87 77.45, 19.75 79 M112.25 79 C81.55 79.1, 51.56 78.66, 19.75 79 M19.75 79 C8.48 78.8, 0.18 73.77, 0 59.25 M19.75 79 C6.58 79.74, 1.77 73.28, 0 59.25 M0 59.25 C0.88 51.8, 0.94 42.27, 0 19.75 M0 59.25 C0.43 49.01, -0.53 39.31, 0 19.75 M0 19.75 C1.11 5.97, 8.42 1.31, 19.75 0 M0 19.75 C1.76 6.59, 5.02 -0.96, 19.75 0" stroke="#1e1e1e" stroke-width="1" fill="none"></path></g><g transform="translate(514.3928833007812 155.35716247558594) rotate(0 58.463958740234375 20)"><text x="58.463958740234375" y="0" font-family="Virgil, Segoe UI Emoji" font-size="16px" fill="#1e1e1e" text-anchor="middle" style="white-space: pre;" direction="ltr" dominant-baseline="text-before-edge">Liughtstreamer</text><text x="58.463958740234375" y="20" font-family="Virgil, Segoe UI Emoji" font-size="16px" fill="#1e1e1e" text-anchor="middle" style="white-space: pre;" direction="ltr" dominant-baseline="text-before-edge">Server Pod</text></g><g stroke-linecap="round" transform="translate(502.0001525878906 239.5714569091797) rotate(0 66 39.5)"><path d="M21.72 -0.38 L113.53 -1.3 L124.48 3.72 L127.38 9.44 L132.3 14.04 L130.44 59.73 L130.66 69.31 L126.02 74.57 L111.46 80.02 L20.71 80.91 L6.43 75.04 L3.08 70.25 L-0.65 64.47 L1.55 15.64 L4.5 4.65 L11.63 0.07 L21.65 -0.2" stroke="none" stroke-width="0" fill="#00cc22"></path><path d="M19.75 0 M19.75 0 C48.99 1.54, 77.7 -1.95, 112.25 0 M19.75 0 C49.13 0.07, 77.47 -0.93, 112.25 0 M112.25 0 C123.69 -0.76, 132.18 5.89, 132 19.75 M112.25 0 C123.41 -0.34, 133.27 5.88, 132 19.75 M132 19.75 C132.27 33.87, 131.43 51.17, 132 59.25 M132 19.75 C131.18 28.98, 131.97 40.8, 132 59.25 M132 59.25 C130.21 71.55, 124.05 77.91, 112.25 79 M132 59.25 C133.68 72.44, 125.45 78.42, 112.25 79 M112.25 79 C85.62 78.76, 56.35 78.02, 19.75 79 M112.25 79 C90.93 79.32, 69.05 78.75, 19.75 79 M19.75 79 C5.54 78.26, 0.98 72.95, 0 59.25 M19.75 79 C6.16 77.17, 1.09 71.37, 0 59.25 M0 59.25 C-1.12 45.31, 0.79 30.11, 0 19.75 M0 59.25 C-1.06 46.6, 0.13 36.32, 0 19.75 M0 19.75 C0.2 8.51, 8.08 1.99, 19.75 0 M0 19.75 C-1.21 6.47, 8.01 0.09, 19.75 0" stroke="#1e1e1e" stroke-width="1" fill="none"></path></g><g transform="translate(509.53619384765625 259.0714569091797) rotate(0 58.463958740234375 20)"><text x="58.463958740234375" y="0" font-family="Virgil, Segoe UI Emoji" font-size="16px" fill="#1e1e1e" text-anchor="middle" style="white-space: pre;" direction="ltr" dominant-baseline="text-before-edge">Liughtstreamer</text><text x="58.463958740234375" y="20" font-family="Virgil, Segoe UI Emoji" font-size="16px" fill="#1e1e1e" text-anchor="middle" style="white-space: pre;" direction="ltr" dominant-baseline="text-before-edge">Server Pod</text></g><g stroke-linecap="round" transform="translate(870.3344645002 57.92878723144531) rotate(0 72 39)"><path d="M18.72 3.63 L125.34 2.67 L136.5 4.33 L144.66 3.8 L140.68 16.34 L141.89 57 L138.09 68.45 L137.44 78.55 L125.73 78.98 L17.78 74.72 L9.92 73.25 L6.2 71.71 L3.07 62.47 L-0.63 15.08 L8.73 6.8 L7.12 -2.17 L20.89 0.74" stroke="none" stroke-width="0" fill="#a5d8ff"></path><path d="M19.5 0 M19.5 0 C47.99 -1.13, 76.07 -0.91, 124.5 0 M19.5 0 C49.88 3.17, 84.72 1.21, 124.5 0 M124.5 0 C139.65 -0.53, 141.36 5.43, 144 19.5 M124.5 0 C138.57 -4.02, 146.96 4.39, 144 19.5 M144 19.5 C143.42 31.86, 146.19 44.66, 144 58.5 M144 19.5 C143.54 30.91, 144.72 45.98, 144 58.5 M144 58.5 C146.53 74.47, 135.62 81.75, 124.5 78 M144 58.5 C140.77 73.99, 139.32 77.69, 124.5 78 M124.5 78 C84.72 79.88, 49.81 77.72, 19.5 78 M124.5 78 C83.27 77.65, 40.11 77.58, 19.5 78 M19.5 78 C7.68 74.28, 1.05 71.77, 0 58.5 M19.5 78 C6.95 81.58, 1.21 76.09, 0 58.5 M0 58.5 C2.02 46.86, 0.73 32.89, 0 19.5 M0 58.5 C-0.12 44.99, 2.54 31.56, 0 19.5 M0 19.5 C0.58 10.1, 9.9 0.12, 19.5 0 M0 19.5 C1.37 8.51, 10.74 4.01, 19.5 0" stroke="#1e1e1e" stroke-width="1" fill="none"></path></g><g transform="translate(878.7265085675829 76.92878723144531) rotate(0 63.60795593261719 20)"><text x="63.60795593261719" y="0" font-family="Virgil, Segoe UI Emoji" font-size="16px" fill="#1e1e1e" text-anchor="middle" style="white-space: pre;" direction="ltr" dominant-baseline="text-before-edge">Remote Adapter</text><text x="63.60795593261719" y="20" font-family="Virgil, Segoe UI Emoji" font-size="16px" fill="#1e1e1e" text-anchor="middle" style="white-space: pre;" direction="ltr" dominant-baseline="text-before-edge">Pod</text></g><g stroke-linecap="round" transform="translate(868.3340982892626 221.0715789794922) rotate(0 72 39)"><path d="M23.11 -3.06 L126.19 3.8 L133.82 6.01 L145.02 4.64 L147.31 16.7 L140.86 58.86 L144.38 71.33 L133.12 71.31 L122.01 75.74 L17.21 74.75 L4.48 72.81 L3.41 71.94 L0.16 65.27 L1.36 14.96 L2.58 2.8 L11.85 1.35 L21.7 -0.56" stroke="none" stroke-width="0" fill="#a5d8ff"></path><path d="M19.5 0 M19.5 0 C40.23 -1.23, 66.54 -3.78, 124.5 0 M19.5 0 C41.56 -1.24, 65.89 -2.48, 124.5 0 M124.5 0 C139.62 0.6, 145.11 9.48, 144 19.5 M124.5 0 C137.93 -1.37, 143.05 2.95, 144 19.5 M144 19.5 C140.6 35.07, 146.45 51.84, 144 58.5 M144 19.5 C142.23 29.39, 142.21 39.32, 144 58.5 M144 58.5 C141.64 68.34, 133.89 80.82, 124.5 78 M144 58.5 C140.04 74.43, 138.54 76.92, 124.5 78 M124.5 78 C89.03 80.52, 46.54 73.62, 19.5 78 M124.5 78 C101.26 80.57, 78.8 79.45, 19.5 78 M19.5 78 C3.09 78.7, 2.84 68.78, 0 58.5 M19.5 78 C8.38 80.86, -0.99 75.69, 0 58.5 M0 58.5 C-3.73 40.07, 0.53 27.38, 0 19.5 M0 58.5 C0 49.23, 1.49 42.94, 0 19.5 M0 19.5 C1.55 7.1, 4.69 3.8, 19.5 0 M0 19.5 C3.62 2.41, 4.01 0.3, 19.5 0" stroke="#1e1e1e" stroke-width="1" fill="none"></path></g><g transform="translate(876.7261423566454 240.0715789794922) rotate(0 63.60795593261719 20)"><text x="63.60795593261719" y="0" font-family="Virgil, Segoe UI Emoji" font-size="16px" fill="#1e1e1e" text-anchor="middle" style="white-space: pre;" direction="ltr" dominant-baseline="text-before-edge">Remote Adapter</text><text x="63.60795593261719" y="20" font-family="Virgil, Segoe UI Emoji" font-size="16px" fill="#1e1e1e" text-anchor="middle" style="white-space: pre;" direction="ltr" dominant-baseline="text-before-edge">Pod</text></g><g stroke-linecap="round"><g transform="translate(825.885705714662 154.95409852491048) rotate(0 19.685541285579916 -25.668917623412028)"><path d="M-1.02 0.21 C5.7 -8.44, 33.55 -43.18, 40.39 -51.55 M0.64 -0.72 C7.28 -9.27, 33.41 -41.9, 39.89 -50.44" stroke="#1e1e1e" stroke-width="1" fill="none"></path></g><g transform="translate(825.885705714662 154.95409852491048) rotate(0 19.685541285579916 -25.668917623412028)"><path d="M30.96 -20.5 C31.99 -29.68, 37.41 -39.59, 41.71 -48.54 M29.85 -21.84 C32.95 -30.35, 35.46 -36.79, 39.86 -50.8" stroke="#1e1e1e" stroke-width="1" fill="none"></path></g><g transform="translate(825.885705714662 154.95409852491048) rotate(0 19.685541285579916 -25.668917623412028)"><path d="M14.79 -33.14 C20.77 -38.35, 31.1 -44.42, 41.71 -48.54 M13.68 -34.48 C21.21 -39.41, 28.09 -42.43, 39.86 -50.8" stroke="#1e1e1e" stroke-width="1" fill="none"></path></g></g><mask></mask><g stroke-linecap="round"><g transform="translate(826.3026292342915 193.98638792224472) rotate(0 15.968416933145363 26.017486893047703)"><path d="M0.44 -1.19 C5.49 7.87, 25.25 44.42, 30.39 53.22 M-0.78 0.8 C4.64 9.65, 27.48 43.01, 32.72 51.66" stroke="#1e1e1e" stroke-width="1" fill="none"></path></g><g transform="translate(826.3026292342915 193.98638792224472) rotate(0 15.968416933145363 26.017486893047703)"><path d="M6.78 32.38 C17.75 39.4, 22.49 43.57, 34.44 52.82 M8.16 32.93 C17.54 39.63, 24.58 47.11, 32.12 51.9" stroke="#1e1e1e" stroke-width="1" fill="none"></path></g><g transform="translate(826.3026292342915 193.98638792224472) rotate(0 15.968416933145363 26.017486893047703)"><path d="M23.99 21.2 C29.54 31.74, 28.96 39.37, 34.44 52.82 M25.37 21.76 C28.72 32.21, 29.84 43.54, 32.12 51.9" stroke="#1e1e1e" stroke-width="1" fill="none"></path></g></g><mask></mask><g stroke-linecap="round"><g transform="translate(635.7143249511719 59.99554136060098) rotate(0 23.68156429987664 46.01704841746847)"><path d="M0.95 0.64 C8.73 15.73, 39.7 76.06, 47.37 91.19 M-0.01 -0.07 C7.51 15.06, 37.97 76.71, 46.21 92.1" stroke="#1e1e1e" stroke-width="1" fill="none"></path></g><g transform="translate(635.7143249511719 59.99554136060098) rotate(0 23.68156429987664 46.01704841746847)"><path d="M25.31 71.01 C30.24 77.5, 38.57 88.09, 46.06 91.21 M24.55 72.35 C33.44 80.13, 42.13 88.79, 45.3 92.99" stroke="#1e1e1e" stroke-width="1" fill="none"></path></g><g transform="translate(635.7143249511719 59.99554136060098) rotate(0 23.68156429987664 46.01704841746847)"><path d="M43.57 61.66 C42.01 71.65, 43.79 85.59, 46.06 91.21 M42.82 63 C44.46 74.5, 45.91 86.85, 45.3 92.99" stroke="#1e1e1e" stroke-width="1" fill="none"></path></g></g><mask></mask><g stroke-linecap="round"><g transform="translate(644.8570251464844 174.33984424782477) rotate(0 20.56196183648433 0.8971041241177318)"><path d="M-0.12 -0.57 C7.06 -0.18, 35.49 1.96, 42.76 2.36 M-1.64 1.75 C5.44 1.8, 34.49 1.06, 41.99 0.72" stroke="#1e1e1e" stroke-width="1" fill="none"></path></g><g transform="translate(644.8570251464844 174.33984424782477) rotate(0 20.56196183648433 0.8971041241177318)"><path d="M21.36 9.21 C29.21 8.36, 33.72 4.27, 41.9 -0.62 M23.2 7.87 C28.42 5.9, 34.83 4.07, 41.68 -0.11" stroke="#1e1e1e" stroke-width="1" fill="none"></path></g><g transform="translate(644.8570251464844 174.33984424782477) rotate(0 20.56196183648433 0.8971041241177318)"><path d="M20.87 -5.3 C28.87 -2.18, 33.51 -2.29, 41.9 -0.62 M22.72 -6.64 C28.01 -3.68, 34.59 -0.56, 41.68 -0.11" stroke="#1e1e1e" stroke-width="1" fill="none"></path></g></g><mask></mask><g stroke-linecap="round"><g transform="translate(643.1429748535156 295.68417529716737) rotate(0 16.76316778375758 -47.82924822670756)"><path d="M-0.87 -0.94 C4.72 -17.11, 28.48 -80.82, 34.39 -96.84 M0.88 1.19 C6.22 -14.8, 27.89 -79.15, 33.39 -95.33" stroke="#1e1e1e" stroke-width="1" fill="none"></path></g><g transform="translate(643.1429748535156 295.68417529716737) rotate(0 16.76316778375758 -47.82924822670756)"><path d="M32.52 -65.5 C33.72 -76.33, 33.1 -86.86, 31.77 -94.65 M34.35 -66.02 C34.56 -73, 34.3 -81.53, 33.88 -94.66" stroke="#1e1e1e" stroke-width="1" fill="none"></path></g><g transform="translate(643.1429748535156 295.68417529716737) rotate(0 16.76316778375758 -47.82924822670756)"><path d="M13.08 -72.08 C21.54 -80.31, 28.17 -88.39, 31.77 -94.65 M14.91 -72.59 C20.2 -77.89, 24.96 -84.73, 33.88 -94.66" stroke="#1e1e1e" stroke-width="1" fill="none"></path></g></g><mask></mask><g stroke-linecap="round"><g transform="translate(462.63302119227694 151.39501803718474) rotate(0 15.281555602165781 -34.332338479576876)"><path d="M0.17 -1.09 C4.93 -12.28, 24.56 -56.6, 29.65 -67.62 M-1.2 0.96 C3.82 -10.58, 26.57 -57.93, 31.76 -69.62" stroke="#1e1e1e" stroke-width="1" fill="none"></path></g><g transform="translate(462.63302119227694 151.39501803718474) rotate(0 15.281555602165781 -34.332338479576876)"><path d="M27.39 -41.64 C30.69 -51.51, 32.39 -62.51, 32.64 -70.97 M30.14 -39.84 C29.53 -46.95, 30.19 -54.72, 30.81 -69.58" stroke="#1e1e1e" stroke-width="1" fill="none"></path></g><g transform="translate(462.63302119227694 151.39501803718474) rotate(0 15.281555602165781 -34.332338479576876)"><path d="M8.77 -50.28 C19.31 -56.81, 28.28 -64.42, 32.64 -70.97 M11.52 -48.48 C15.83 -53.14, 21.43 -58.62, 30.81 -69.58" stroke="#1e1e1e" stroke-width="1" fill="none"></path></g></g><mask></mask><g stroke-linecap="round"><g transform="translate(455.5302273118243 213.88547076799404) rotate(0 18.49157344096676 32.76789845756704)"><path d="M-0.97 -0.85 C5.36 10.03, 31.64 54.03, 37.95 64.79 M0.72 1.32 C7.01 12.45, 31.72 55.85, 37.63 66.39" stroke="#1e1e1e" stroke-width="1" fill="none"></path></g><g transform="translate(455.5302273118243 213.88547076799404) rotate(0 18.49157344096676 32.76789845756704)"><path d="M13.4 48.9 C21.7 53.08, 26.69 58.05, 38.92 64.63 M15.76 46.69 C19.87 51.21, 24.09 53.86, 38.3 65.62" stroke="#1e1e1e" stroke-width="1" fill="none"></path></g><g transform="translate(455.5302273118243 213.88547076799404) rotate(0 18.49157344096676 32.76789845756704)"><path d="M31.26 38.79 C34.22 45.83, 33.91 53.8, 38.92 64.63 M33.62 36.59 C34.17 43.22, 34.77 47.92, 38.3 65.62" stroke="#1e1e1e" stroke-width="1" fill="none"></path></g></g><mask></mask><g stroke-linecap="round"><g transform="translate(469.3867251426542 176.7828611255518) rotate(0 15.963345241891147 -0.851019090896159)"><path d="M-0.72 -0.1 C4.75 -0.48, 27.01 -1.59, 32.65 -1.6 M1.1 -1.2 C6.48 -1.51, 26.72 -0.35, 32.02 -0.52" stroke="#1e1e1e" stroke-width="1" fill="none"></path></g><g transform="translate(469.3867251426542 176.7828611255518) rotate(0 15.963345241891147 -0.851019090896159)"><path d="M16.74 5.52 C20.02 4.73, 26.28 0.25, 30.49 1.05 M16.96 5.13 C21.46 3.76, 26.26 2.02, 32.26 -0.17" stroke="#1e1e1e" stroke-width="1" fill="none"></path></g><g transform="translate(469.3867251426542 176.7828611255518) rotate(0 15.963345241891147 -0.851019090896159)"><path d="M16.92 -5.44 C20.21 -3.1, 26.42 -4.44, 30.49 1.05 M17.14 -5.83 C21.6 -4.03, 26.35 -2.6, 32.26 -0.17" stroke="#1e1e1e" stroke-width="1" fill="none"></path></g></g><mask></mask><g stroke-linecap="round"><g transform="translate(255.7142333984375 177.30398595864966) rotate(0 17.31954277065273 -0.11314570247816391)"><path d="M0.43 -1.08 C6.49 -1.21, 29.79 -1.28, 35.44 -1.13 M-0.8 0.97 C5.18 1.05, 28.25 0.77, 34.49 0.25" stroke="#1e1e1e" stroke-width="1" fill="none"></path></g><g transform="translate(255.7142333984375 177.30398595864966) rotate(0 17.31954277065273 -0.11314570247816391)"><path d="M16.52 7.02 C21.32 3.81, 26.37 3.75, 36.26 0.12 M17.31 7.64 C22.06 4.41, 28.07 3.23, 34.51 0.9" stroke="#1e1e1e" stroke-width="1" fill="none"></path></g><g transform="translate(255.7142333984375 177.30398595864966) rotate(0 17.31954277065273 -0.11314570247816391)"><path d="M15.99 -5.09 C20.87 -5.61, 26.04 -2.97, 36.26 0.12 M16.78 -4.48 C21.76 -4.11, 27.93 -1.69, 34.51 0.9" stroke="#1e1e1e" stroke-width="1" fill="none"></path></g></g><mask></mask><g stroke-linecap="round"><g transform="translate(95.14266967773438 74.24949066957288) rotate(0 24.40573665172792 43.383266110069826)"><path d="M-0.13 -0.19 C8.25 14.27, 42.04 72.06, 50.46 86.55 M-1.65 -1.34 C6.61 13.35, 41.29 73.19, 49.91 88.11" stroke="#1e1e1e" stroke-width="1" fill="none"></path></g><g transform="translate(95.14266967773438 74.24949066957288) rotate(0 24.40573665172792 43.383266110069826)"><path d="M26.59 70.09 C34.26 76.18, 41.89 81.21, 50.09 90.04 M26.93 68.76 C33.47 75.56, 42.1 80.74, 50.2 88.65" stroke="#1e1e1e" stroke-width="1" fill="none"></path></g><g transform="translate(95.14266967773438 74.24949066957288) rotate(0 24.40573665172792 43.383266110069826)"><path d="M44.35 59.81 C46.34 69.17, 48.32 77.46, 50.09 90.04 M44.69 58.49 C45.5 68.52, 48.39 77.02, 50.2 88.65" stroke="#1e1e1e" stroke-width="1" fill="none"></path></g></g><mask></mask><g stroke-linecap="round"><g transform="translate(99.714111328125 177.19904199657395) rotate(0 23.707149828020476 -0.07905346293668458)"><path d="M0.99 0.12 C8.38 0.23, 37.86 0.99, 45.21 0.94 M0.05 -0.86 C7.73 -1.14, 39.47 -1.2, 47.36 -0.91" stroke="#1e1e1e" stroke-width="1" fill="none"></path></g><g transform="translate(99.714111328125 177.19904199657395) rotate(0 23.707149828020476 -0.07905346293668458)"><path d="M25.71 4.91 C34.46 1.74, 40.79 1.53, 47.18 -1.2 M25.38 6.43 C32.46 3.53, 38.32 2.67, 48.15 -0.19" stroke="#1e1e1e" stroke-width="1" fill="none"></path></g><g transform="translate(99.714111328125 177.19904199657395) rotate(0 23.707149828020476 -0.07905346293668458)"><path d="M25.93 -10.92 C34.64 -8.21, 40.88 -2.53, 47.18 -1.2 M25.6 -9.4 C32.5 -7.58, 38.29 -3.72, 48.15 -0.19" stroke="#1e1e1e" stroke-width="1" fill="none"></path></g></g><mask></mask><g stroke-linecap="round"><g transform="translate(105.4283447265625 277.986792788816) rotate(0 18.58088761478666 -42.0250767948809)"><path d="M-1.08 -0.8 C4.91 -14.79, 29.8 -69.8, 36.09 -83.7 M0.55 1.39 C6.89 -12.96, 32.41 -71.42, 38.25 -85.44" stroke="#1e1e1e" stroke-width="1" fill="none"></path></g><g transform="translate(105.4283447265625 277.986792788816) rotate(0 18.58088761478666 -42.0250767948809)"><path d="M35.25 -57.25 C38.25 -65.65, 37.94 -75.62, 37.48 -87.31 M37.52 -55.52 C37.21 -66.69, 37.47 -77.74, 37.59 -85.6" stroke="#1e1e1e" stroke-width="1" fill="none"></path></g><g transform="translate(105.4283447265625 277.986792788816) rotate(0 18.58088761478666 -42.0250767948809)"><path d="M16.38 -65.33 C25.27 -71.05, 30.82 -78.51, 37.48 -87.31 M18.66 -63.59 C25.05 -72, 32.03 -80.18, 37.59 -85.6" stroke="#1e1e1e" stroke-width="1" fill="none"></path></g></g><mask></mask></svg>