<svg version="1.1" xmlns="http://www.w3.org/2000/svg" viewBox="0 0 1134 428" width="1134" height="428">
  <!-- svg-source:excalidraw -->
  
  <defs>
    <style class="style-fonts">
      @font-face {
        font-family: "Virgil";
        src: url("https://excalidraw.com/Virgil.woff2");
      }
      @font-face {
        font-family: "Cascadia";
        src: url("https://excalidraw.com/Cascadia.woff2");
      }
    </style>
    
  </defs>
  <rect x="0" y="0" width="1134" height="428" fill="#ffffff"></rect><g stroke-linecap="round" transform="translate(142 10) rotate(0 491 204)"><path d="M32 0 M32 0 C260.4 1.61, 486.66 4.63, 950 0 M32 0 C309.82 -6.73, 588.85 -7.83, 950 0 M950 0 C969.12 0.69, 984.74 11.7, 982 32 M950 0 C975.08 -2.2, 982.08 8.87, 982 32 M982 32 C976.82 135.39, 981.46 234.81, 982 376 M982 32 C979.52 138.97, 981.3 247.72, 982 376 M982 376 C985.17 399.78, 971.62 409.78, 950 408 M982 376 C986.27 395.34, 971.31 411.29, 950 408 M950 408 C763.28 415.19, 577.85 415.61, 32 408 M950 408 C669.83 404.96, 390.28 405.14, 32 408 M32 408 C14.28 407.78, -1.14 398.78, 0 376 M32 408 C9.83 406.46, -2.26 397.22, 0 376 M0 376 C3.1 244.65, 3.86 109.51, 0 32 M0 376 C3.98 243.63, 2.55 109.91, 0 32 M0 32 C-1.45 9.75, 13.78 1.91, 32 0 M0 32 C1.61 7.23, 13.14 4.06, 32 0" stroke="#1e1e1e" stroke-width="1" fill="none"></path></g><g transform="translate(968.6800994873047 393) rotate(0 75.15995025634766 10)"><text x="150.3199005126953" y="0" font-family="Virgil, Segoe UI Emoji" font-size="16px" fill="#1e1e1e" text-anchor="end" style="white-space: pre;" direction="ltr" dominant-baseline="text-before-edge">Kubernetes Cluster</text></g><g stroke-linecap="round" transform="translate(924.2139282226562 107.96389770507812) rotate(0 81 37.5)"><path d="M20.19 -2.14 L140.5 1.74 L150.8 4.19 L159.11 3.48 L162.9 17.95 L158.76 55.46 L161.27 69.49 L153.75 76.09 L144.85 76 L20.3 78.46 L8.97 73.23 L5.74 64.75 L-2.19 60.73 L3.02 14.58 L3.4 4.93 L22.21 1.45" stroke="none" stroke-width="0" fill="#a5d8ff"></path><path d="M18.75 0 M18.75 0 C56.93 -2.78, 98.99 0.5, 143.25 0 M18.75 0 C61.44 -0.28, 102.05 1.5, 143.25 0 M143.25 0 C152.35 3.33, 164.05 2.76, 162 18.75 M143.25 0 C154.33 -4.3, 160.31 6.57, 162 18.75 M162 18.75 C164.09 28.2, 162.4 42.87, 162 56.25 M162 18.75 C162.75 32.22, 163.42 48.42, 162 56.25 M162 56.25 C165.76 69.25, 154.41 77.81, 143.25 75 M162 56.25 C159.05 69.14, 158.65 70.76, 143.25 75 M143.25 75 C111.28 73.82, 71.15 73.27, 18.75 75 M143.25 75 C100.13 74, 54.97 73.82, 18.75 75 M18.75 75 C8.46 77.24, -3.02 70.01, 0 56.25 M18.75 75 C3.9 73.26, -1.04 68.51, 0 56.25 M0 56.25 C2.67 45.84, 2.14 33.33, 0 18.75 M0 56.25 C-1.13 44.85, 1.63 28.59, 0 18.75 M0 18.75 C-2.3 8.45, 4.1 -2.87, 18.75 0 M0 18.75 C2.15 10.79, 6.41 0.37, 18.75 0" stroke="#1e1e1e" stroke-width="2" fill="none"></path></g><g transform="translate(941.6059722900391 125.46389770507812) rotate(0 63.60795593261719 20)"><text x="63.60795593261719" y="0" font-family="Virgil, Segoe UI Emoji" font-size="16px" fill="#1e1e1e" text-anchor="middle" style="white-space: pre;" direction="ltr" dominant-baseline="text-before-edge">Remote Adapter</text><text x="63.60795593261719" y="20" font-family="Virgil, Segoe UI Emoji" font-size="16px" fill="#1e1e1e" text-anchor="middle" style="white-space: pre;" direction="ltr" dominant-baseline="text-before-edge">Pod</text></g><g stroke-linecap="round" transform="translate(927.35693359375 223.67828369140625) rotate(0 81 37.5)"><path d="M18.24 1.39 L144.16 3.78 L152.92 2.05 L157.06 9.31 L157.81 15.49 L162.8 52.84 L156.88 63.9 L156.88 74.6 L140.23 76.26 L16.7 73.49 L6.42 72.15 L2.79 65.52 L-1.21 62.91 L1.27 16.1 L4.56 6.8 L19.42 -3.45" stroke="none" stroke-width="0" fill="#a5d8ff"></path><path d="M18.75 0 M18.75 0 C47.47 -4.48, 83.19 -4.33, 143.25 0 M18.75 0 C47.22 -2.3, 75.28 -3.43, 143.25 0 M143.25 0 C158.59 -2.68, 163.46 6.89, 162 18.75 M143.25 0 C158.62 -0.95, 158.54 9.37, 162 18.75 M162 18.75 C160.6 32.7, 160.76 47.43, 162 56.25 M162 18.75 C160.72 26.52, 163.5 34.67, 162 56.25 M162 56.25 C161.9 66.13, 154.48 73.19, 143.25 75 M162 56.25 C161.21 70.15, 154.75 77.35, 143.25 75 M143.25 75 C102.08 77.3, 58.63 74.37, 18.75 75 M143.25 75 C101.68 71.98, 55.97 72.39, 18.75 75 M18.75 75 C7.09 76.3, 2.87 67.7, 0 56.25 M18.75 75 C7.39 78.37, -0.05 68.4, 0 56.25 M0 56.25 C1.58 43.38, -2.19 34.83, 0 18.75 M0 56.25 C-1.14 45.55, 2.2 32.12, 0 18.75 M0 18.75 C2.61 5.88, 5.93 -0.64, 18.75 0 M0 18.75 C4.33 9.68, 6.01 -3.47, 18.75 0" stroke="#1e1e1e" stroke-width="2" fill="none"></path></g><g transform="translate(944.7489776611328 241.17828369140625) rotate(0 63.60795593261719 20)"><text x="63.60795593261719" y="0" font-family="Virgil, Segoe UI Emoji" font-size="16px" fill="#1e1e1e" text-anchor="middle" style="white-space: pre;" direction="ltr" dominant-baseline="text-before-edge">Remote Adapter</text><text x="63.60795593261719" y="20" font-family="Virgil, Segoe UI Emoji" font-size="16px" fill="#1e1e1e" text-anchor="middle" style="white-space: pre;" direction="ltr" dominant-baseline="text-before-edge">Pod</text></g><g stroke-linecap="round" transform="translate(314.7138977050781 166.99990844726562) rotate(0 84 53)"><path d="M148.06 19.61 C156.73 24.67, 161.33 31.04, 164.59 38.28 C167.85 45.51, 169.83 55.78, 167.62 63.02 C165.4 70.27, 158.77 75.72, 151.3 81.74 C143.82 87.76, 133.21 94.84, 122.79 99.13 C112.38 103.42, 100.69 106.8, 88.81 107.47 C76.94 108.14, 62.63 106.25, 51.55 103.17 C40.47 100.09, 30.72 95.21, 22.34 88.97 C13.96 82.73, 4.49 72.92, 1.29 65.72 C-1.92 58.53, 1.08 52.72, 3.12 45.79 C5.17 38.86, 6.71 30.55, 13.57 24.17 C20.44 17.78, 33.48 11.33, 44.33 7.5 C55.18 3.66, 66.78 1.98, 78.66 1.17 C90.55 0.35, 103.44 -0.45, 115.63 2.61 C127.81 5.66, 145.69 15.86, 151.78 19.49 C157.87 23.13, 153.55 23.56, 152.16 24.4 M31.5 15.62 C39.61 10.47, 49.86 7.08, 60.77 4.87 C71.68 2.67, 84.75 1.29, 96.97 2.39 C109.19 3.49, 124.15 6.81, 134.09 11.45 C144.04 16.1, 151.01 24.19, 156.66 30.25 C162.31 36.32, 167.26 40.65, 168.01 47.84 C168.76 55.03, 165.81 66.25, 161.17 73.41 C156.52 80.57, 149.07 85.37, 140.13 90.8 C131.19 96.22, 119.77 103.2, 107.53 105.96 C95.29 108.73, 79.24 109.2, 66.69 107.37 C54.13 105.53, 42.07 100.21, 32.19 94.96 C22.3 89.72, 12.6 82.27, 7.38 75.88 C2.17 69.49, 1.36 63.93, 0.89 56.61 C0.43 49.29, -0.11 39.28, 4.58 31.95 C9.28 24.63, 25.31 15.63, 29.05 12.67 C32.8 9.72, 25.83 13.54, 27.05 14.24" stroke="none" stroke-width="0" fill="#b2f2bb"></path><path d="M73.9 -0.18 C84.74 -1.95, 96.52 -1.22, 108.19 0.93 C119.86 3.08, 134.78 7.49, 143.91 12.74 C153.03 17.99, 158.78 25.14, 162.94 32.42 C167.1 39.71, 170.21 48.63, 168.86 56.45 C167.5 64.26, 161.48 72.32, 154.79 79.31 C148.09 86.29, 138.48 94.14, 128.66 98.37 C118.84 102.6, 107.42 103.82, 95.84 104.7 C84.25 105.58, 71.02 105.58, 59.14 103.66 C47.26 101.73, 33.61 98.51, 24.56 93.16 C15.52 87.81, 8.73 79.24, 4.85 71.56 C0.98 63.88, 0.11 54.83, 1.32 47.06 C2.53 39.3, 5.82 31.37, 12.1 24.94 C18.38 18.52, 27.64 12.38, 39.01 8.53 C50.39 4.69, 72.21 3.36, 80.36 1.86 C88.51 0.37, 87.63 -0.85, 87.89 -0.44 M141.88 12.89 C151.28 17.43, 159.54 26.73, 163.82 34.87 C168.1 43.02, 168.81 54.09, 167.55 61.75 C166.29 69.4, 163.03 74.93, 156.26 80.79 C149.5 86.65, 137.87 92.86, 126.98 96.92 C116.08 100.97, 103.01 104.32, 90.91 105.14 C78.8 105.96, 65.14 103.92, 54.36 101.82 C43.59 99.73, 34.56 97.42, 26.25 92.55 C17.95 87.69, 8.6 80.37, 4.54 72.65 C0.48 64.93, 0.17 54.33, 1.89 46.23 C3.61 38.14, 8.74 30.74, 14.85 24.07 C20.96 17.4, 28.84 10.6, 38.56 6.21 C48.28 1.82, 61.29 -1.85, 73.16 -2.27 C85.02 -2.7, 98 0.73, 109.75 3.66 C121.5 6.59, 138.63 13.14, 143.68 15.3 C148.73 17.46, 140.72 15.48, 140.03 16.6" stroke="#1e1e1e" stroke-width="1" fill="none"></path></g><g transform="translate(344.89696806343545 200.02324904437864) rotate(0 53.919960021972656 20)"><text x="53.919960021972656" y="0" font-family="Virgil, Segoe UI Emoji" font-size="16px" fill="#1e1e1e" text-anchor="middle" style="white-space: pre;" direction="ltr" dominant-baseline="text-before-edge">Lightstreamer</text><text x="53.919960021972656" y="20" font-family="Virgil, Segoe UI Emoji" font-size="16px" fill="#1e1e1e" text-anchor="middle" style="white-space: pre;" direction="ltr" dominant-baseline="text-before-edge">Service</text></g><g stroke-linecap="round" transform="translate(752.1424865722656 159.85708618164062) rotate(0 62 53)"><path d="M114.72 24.17 C120.78 30.37, 123.4 41.58, 124.21 49.43 C125.02 57.28, 123.15 64.15, 119.57 71.27 C115.99 78.39, 110.16 86.78, 102.73 92.17 C95.3 97.55, 84.76 101.26, 74.99 103.56 C65.22 105.86, 53.14 108.12, 44.1 105.98 C35.05 103.83, 27.26 96.56, 20.72 90.69 C14.19 84.82, 7.93 78.3, 4.9 70.75 C1.87 63.21, 1.26 53.53, 2.55 45.4 C3.83 37.28, 7.56 28.94, 12.6 22.02 C17.64 15.1, 24.19 7.55, 32.76 3.86 C41.34 0.17, 53.86 -0.29, 64.06 -0.1 C74.25 0.09, 85.32 0.74, 93.93 5 C102.53 9.26, 112.18 21.49, 115.67 25.46 C119.16 29.44, 115.93 28.24, 114.85 28.85 M111.33 22.07 C117.09 28.04, 118.55 38.17, 120.47 46.55 C122.39 54.93, 125.29 64.94, 122.84 72.33 C120.38 79.72, 113.3 85.86, 105.75 90.89 C98.19 95.91, 86.77 100.09, 77.53 102.47 C68.28 104.86, 60.02 106.85, 50.28 105.18 C40.53 103.51, 26.78 98.15, 19.08 92.47 C11.37 86.79, 7.31 78.94, 4.05 71.11 C0.79 63.28, -1.58 53.6, -0.46 45.5 C0.67 37.4, 5.01 28.92, 10.82 22.51 C16.62 16.1, 26.16 10.68, 34.39 7.05 C42.62 3.42, 51.05 1.26, 60.19 0.72 C69.33 0.19, 80.47 0.47, 89.23 3.85 C98 7.23, 108.95 17.75, 112.77 21 C116.58 24.24, 112.72 22.81, 112.14 23.3" stroke="none" stroke-width="0" fill="#b2f2bb"></path><path d="M17.15 16.69 C22.73 10.41, 33.65 4.92, 42.6 2.42 C51.56 -0.08, 61.14 0.37, 70.86 1.67 C80.57 2.98, 92.89 5.38, 100.88 10.23 C108.87 15.08, 115.07 23.07, 118.8 30.78 C122.53 38.49, 123.66 48.1, 123.24 56.5 C122.82 64.89, 120.87 73.99, 116.27 81.15 C111.67 88.31, 103.64 95.41, 95.66 99.46 C87.67 103.5, 78.07 105.26, 68.36 105.41 C58.65 105.55, 46.41 103.5, 37.4 100.32 C28.39 97.14, 20.28 92.17, 14.3 86.32 C8.33 80.46, 3.73 73.13, 1.54 65.16 C-0.65 57.2, -2.77 47.33, 1.18 38.56 C5.13 29.78, 19.95 17.46, 25.23 12.54 C30.51 7.61, 32.2 8.34, 32.87 9.02 M45.42 -0.43 C54.04 -3.42, 66.7 -2.05, 75.8 0.39 C84.89 2.82, 93.01 8.95, 100 14.18 C106.98 19.4, 114.18 24.27, 117.73 31.72 C121.28 39.17, 121.56 50.57, 121.31 58.88 C121.05 67.18, 120.44 74.71, 116.2 81.55 C111.96 88.38, 104.08 95.89, 95.86 99.88 C87.65 103.86, 77.13 104.91, 66.91 105.45 C56.68 106, 43.24 106.15, 34.53 103.12 C25.83 100.1, 20.25 94.05, 14.67 87.3 C9.08 80.55, 3.22 71, 1.02 62.61 C-1.19 54.22, -1.38 44.53, 1.44 36.98 C4.26 29.43, 11.11 23.14, 17.92 17.32 C24.72 11.51, 37.86 4.41, 42.24 2.1 C46.62 -0.21, 43.23 2.72, 44.17 3.47" stroke="#1e1e1e" stroke-width="1" fill="none"></path></g><g transform="translate(777.1658874399692 192.88042677875364) rotate(0 37.13597869873047 20)"><text x="37.13597869873047" y="0" font-family="Virgil, Segoe UI Emoji" font-size="16px" fill="#1e1e1e" text-anchor="middle" style="white-space: pre;" direction="ltr" dominant-baseline="text-before-edge">StockList</text><text x="37.13597869873047" y="20" font-family="Virgil, Segoe UI Emoji" font-size="16px" fill="#1e1e1e" text-anchor="middle" style="white-space: pre;" direction="ltr" dominant-baseline="text-before-edge">Service</text></g><g stroke-linecap="round"><g transform="translate(489.00702398354997 194.88980228210994) rotate(0 20.526431250802887 -43.43427416533814)"><path d="M-1.52 -0.25 C5.95 -14.55, 35.59 -72.72, 42.58 -86.62 M2.85 -2.85 C10.1 -16.62, 32.89 -69.02, 40.05 -83.17" stroke="#1e1e1e" stroke-width="1" fill="none"></path></g><g transform="translate(489.00702398354997 194.88980228210994) rotate(0 20.526431250802887 -43.43427416533814)"><path d="M37.04 -54.04 C37.69 -63.64, 42.49 -64.43, 37.9 -81.05 M36.77 -53.33 C37.84 -66.11, 40.34 -76.37, 41.36 -85.06" stroke="#1e1e1e" stroke-width="1" fill="none"></path></g><g transform="translate(489.00702398354997 194.88980228210994) rotate(0 20.526431250802887 -43.43427416533814)"><path d="M18.45 -62.74 C23.12 -70.23, 31.99 -69.12, 37.9 -81.05 M18.18 -62.03 C26.49 -71.66, 36.18 -78.55, 41.36 -85.06" stroke="#1e1e1e" stroke-width="1" fill="none"></path></g></g><mask></mask><g stroke-linecap="round"><g transform="translate(689.8642627530811 97.46118289734432) rotate(0 28.71312267829444 38.18762228194038)"><path d="M-1.69 -2.25 C7.62 10.44, 44.13 62.18, 53.56 75.95 M2.59 2.7 C13.04 15.73, 50.72 66.37, 59.12 78.62" stroke="#1e1e1e" stroke-width="1" fill="none"></path></g><g transform="translate(689.8642627530811 97.46118289734432) rotate(0 28.71312267829444 38.18762228194038)"><path d="M31.1 59.54 C37.14 65.4, 48.79 68.38, 59.81 77.57 M35.87 62.94 C42.63 66.16, 48.76 70.86, 60.19 78.9" stroke="#1e1e1e" stroke-width="1" fill="none"></path></g><g transform="translate(689.8642627530811 97.46118289734432) rotate(0 28.71312267829444 38.18762228194038)"><path d="M47.75 47.54 C50.17 55.79, 58.22 61.37, 59.81 77.57 M52.52 50.95 C53.91 58, 54.9 66.41, 60.19 78.9" stroke="#1e1e1e" stroke-width="1" fill="none"></path></g></g><mask></mask><g stroke-linecap="round"><g transform="translate(697.0072070890186 214.88977176453182) rotate(0 20.781094886630456 -2.7550706900714204)"><path d="M0.64 -0.88 C7.62 -1.65, 37.27 -4.42, 44.02 -4.63 M-2.46 -3.83 C4.14 -4.17, 36 -0.87, 42.9 -1.33" stroke="#1e1e1e" stroke-width="1" fill="none"></path></g><g transform="translate(697.0072070890186 214.88977176453182) rotate(0 20.781094886630456 -2.7550706900714204)"><path d="M21.6 8.13 C29.51 1.51, 40.61 0.48, 42.58 -4.77 M22.45 3.53 C32.33 3.78, 39.96 -1.41, 44.72 -1.63" stroke="#1e1e1e" stroke-width="1" fill="none"></path></g><g transform="translate(697.0072070890186 214.88977176453182) rotate(0 20.781094886630456 -2.7550706900714204)"><path d="M22.09 -6.27 C29.82 -7.48, 40.73 -3.09, 42.58 -4.77 M22.95 -10.88 C32.83 -5.17, 40.28 -4.88, 44.72 -1.63" stroke="#1e1e1e" stroke-width="1" fill="none"></path></g></g><mask></mask><g stroke-linecap="round"><g transform="translate(693.2929126554249 335.74688846375057) rotate(0 25.18590343882107 -48.02267451938826)"><path d="M-0.97 2.76 C6.96 -12.8, 38.07 -77.88, 46.31 -94.58 M3.7 1.8 C12.59 -14.48, 44.22 -82.67, 51.34 -98.81" stroke="#1e1e1e" stroke-width="1" fill="none"></path></g><g transform="translate(693.2929126554249 335.74688846375057) rotate(0 25.18590343882107 -48.02267451938826)"><path d="M52.93 -72.49 C51.88 -76.98, 48.46 -84.05, 54.98 -98.42 M48.4 -67.63 C49.21 -75.1, 50.17 -81.78, 53.04 -100.73" stroke="#1e1e1e" stroke-width="1" fill="none"></path></g><g transform="translate(693.2929126554249 335.74688846375057) rotate(0 25.18590343882107 -48.02267451938826)"><path d="M34.26 -81.01 C37.87 -83.2, 39.19 -88.12, 54.98 -98.42 M29.73 -76.14 C34.76 -81.49, 39.78 -86.32, 53.04 -100.73" stroke="#1e1e1e" stroke-width="1" fill="none"></path></g></g><mask></mask><g stroke-linecap="round"><g transform="translate(491.9977513348648 214.4260044766345) rotate(0 20.34213918559618 0.08918122741306433)"><path d="M-1.77 1.92 C5.58 1.67, 34.98 -1.42, 42.46 -1.74 M2.46 0.5 C9.67 0.63, 34.11 0.74, 40.72 1.21" stroke="#1e1e1e" stroke-width="1" fill="none"></path></g><g transform="translate(491.9977513348648 214.4260044766345) rotate(0 20.34213918559618 0.08918122741306433)"><path d="M23.71 8.95 C23.96 8.52, 31.16 3.82, 37.84 0.09 M19.32 8.44 C26.45 4.04, 36.63 1.98, 41.04 2.75" stroke="#1e1e1e" stroke-width="1" fill="none"></path></g><g transform="translate(491.9977513348648 214.4260044766345) rotate(0 20.34213918559618 0.08918122741306433)"><path d="M24.2 -5.25 C24.31 -2.27, 31.4 -3.55, 37.84 0.09 M19.81 -5.77 C26.68 -4.85, 36.68 -1.6, 41.04 2.75" stroke="#1e1e1e" stroke-width="1" fill="none"></path></g></g><mask></mask><g stroke-linecap="round"><g transform="translate(487.2310392543475 247.78467550649907) rotate(0 20.398036116280252 37.4238074231433)"><path d="M-2.15 -0.41 C5.31 11.76, 35.7 62.35, 42.95 75.65 M1.88 -3.1 C9.37 10.53, 35.77 65, 42.14 77.95" stroke="#1e1e1e" stroke-width="1" fill="none"></path></g><g transform="translate(487.2310392543475 247.78467550649907) rotate(0 20.398036116280252 37.4238074231433)"><path d="M19.96 60.9 C22.47 63.82, 32.89 67.36, 42.6 74.19 M19.41 57.57 C27.28 64.92, 35.4 71.94, 40.78 79.39" stroke="#1e1e1e" stroke-width="1" fill="none"></path></g><g transform="translate(487.2310392543475 247.78467550649907) rotate(0 20.398036116280252 37.4238074231433)"><path d="M38.4 51.89 C36.76 56.63, 42.86 62.28, 42.6 74.19 M37.85 48.56 C39.53 58.97, 41.44 69.02, 40.78 79.39" stroke="#1e1e1e" stroke-width="1" fill="none"></path></g></g><mask></mask><g stroke-linecap="round" transform="translate(543.4284973144531 36.642669677734375) rotate(0 68 55.5)"><path d="M30.8 2.44 L111.95 -0.36 L128.55 8.07 L134.31 12.69 L134.47 30.72 L139.34 93.66 L127.27 100.37 L121.55 111.3 L109.26 109.48 L24.27 107.31 L8.16 107.78 L2.7 86.01 L-2.28 24.48 L8.76 6.66 L19.28 -1.14 L30.47 1.26" stroke="none" stroke-width="0" fill="#ffa94d"></path><path d="M27.75 0 M27.75 0 C51.59 1.63, 68.97 2.89, 108.25 0 M27.75 0 C46.22 1, 66.29 1.39, 108.25 0 M108.25 0 C122.93 -3.38, 133.71 9.76, 136 27.75 M108.25 0 C125.8 3.06, 133.33 9.14, 136 27.75 M136 27.75 C133.09 42.5, 134.6 64.54, 136 83.25 M136 27.75 C134.18 44.14, 136.71 59.49, 136 83.25 M136 83.25 C138.26 99.37, 129.96 109.71, 108.25 111 M136 83.25 C140.57 104.34, 126.37 112.4, 108.25 111 M108.25 111 C78.75 113.7, 52.06 111.59, 27.75 111 M108.25 111 C85.54 110.56, 63.13 112.64, 27.75 111 M27.75 111 C11.22 114.93, 2.36 102.9, 0 83.25 M27.75 111 C6.11 111.25, 0.86 101.06, 0 83.25 M0 83.25 C1.61 68.83, 0.07 55.84, 0 27.75 M0 83.25 C-1.17 71.45, 2.2 57.39, 0 27.75 M0 27.75 C-3.55 7.41, 12.98 3.67, 27.75 0 M0 27.75 C-3.76 6.97, 10.71 -2.45, 27.75 0" stroke="#1e1e1e" stroke-width="1" fill="none"></path></g><g transform="translate(560.9485321044922 72.14266967773438) rotate(0 50.47996520996094 20)"><text x="50.47996520996094" y="0" font-family="Virgil, Segoe UI Emoji" font-size="16px" fill="#1e1e1e" text-anchor="middle" style="white-space: pre;" direction="ltr" dominant-baseline="text-before-edge">Lightsteamer</text><text x="50.47996520996094" y="20" font-family="Virgil, Segoe UI Emoji" font-size="16px" fill="#1e1e1e" text-anchor="middle" style="white-space: pre;" direction="ltr" dominant-baseline="text-before-edge">Server Pod</text></g><g stroke-linecap="round" transform="translate(545.9997253417969 157.49993896484375) rotate(0 68 55.5)"><path d="M29.02 -2.13 L112.46 -1.65 L129.8 7.99 L133.61 12.09 L132.64 25.57 L133.28 87.02 L130.62 107.76 L117.3 106.05 L110.39 108.15 L18.35 107.03 L10.01 107.65 L-1.03 88.44 L-0.44 24.61 L4.43 9.71 L18.75 1.49 L26.09 0.96" stroke="none" stroke-width="0" fill="#ffa94d"></path><path d="M27.75 0 M27.75 0 C54.34 0.03, 82.23 -1.17, 108.25 0 M27.75 0 C52.98 -0.62, 83.2 2.97, 108.25 0 M108.25 0 C124.69 -3.38, 135.76 12.67, 136 27.75 M108.25 0 C131.1 2.21, 131.79 5.71, 136 27.75 M136 27.75 C131.86 39.3, 136.83 55.51, 136 83.25 M136 27.75 C137.38 40.44, 134.65 49.07, 136 83.25 M136 83.25 C137.14 105.6, 128.86 111.27, 108.25 111 M136 83.25 C132.63 101.46, 123.58 109.08, 108.25 111 M108.25 111 C79.19 113.2, 41.27 110.25, 27.75 111 M108.25 111 C87.78 110.93, 71.05 110.6, 27.75 111 M27.75 111 C9.68 113.07, 1.7 103.35, 0 83.25 M27.75 111 C12.94 112.27, 2.27 102.96, 0 83.25 M0 83.25 C1.97 66.13, 1.2 48.37, 0 27.75 M0 83.25 C1.38 70.04, -1.21 57.72, 0 27.75 M0 27.75 C-3.19 9.82, 12.11 0.04, 27.75 0 M0 27.75 C4.02 11.99, 12.01 -2.78, 27.75 0" stroke="#1e1e1e" stroke-width="1" fill="none"></path></g><g transform="translate(563.5197601318359 192.99993896484375) rotate(0 50.47996520996094 20)"><text x="50.47996520996094" y="0" font-family="Virgil, Segoe UI Emoji" font-size="16px" fill="#1e1e1e" text-anchor="middle" style="white-space: pre;" direction="ltr" dominant-baseline="text-before-edge">Lightsteamer</text><text x="50.47996520996094" y="20" font-family="Virgil, Segoe UI Emoji" font-size="16px" fill="#1e1e1e" text-anchor="middle" style="white-space: pre;" direction="ltr" dominant-baseline="text-before-edge">Server Pod</text></g><g stroke-linecap="round" transform="translate(549.1427917480469 280.64288330078125) rotate(0 68 55.5)"><path d="M25.69 -3.38 L114.51 3.85 L132.85 8.86 L130.6 12.53 L134.98 26.28 L131.97 86.02 L125.38 105.31 L117.68 105.5 L108.91 112.82 L23.63 113.11 L3.87 101.02 L1.57 93.6 L2.54 21.52 L4 6.68 L12.85 0.07 L31.5 -3.23" stroke="none" stroke-width="0" fill="#ffa94d"></path><path d="M27.75 0 M27.75 0 C55.22 -2.46, 87.51 1.65, 108.25 0 M27.75 0 C51.43 -0.27, 72.33 0.77, 108.25 0 M108.25 0 C128.45 1.6, 139.21 10.36, 136 27.75 M108.25 0 C129.02 1.21, 135.46 11.5, 136 27.75 M136 27.75 C138.44 44, 133.77 64.8, 136 83.25 M136 27.75 C135.03 47.56, 134.99 68.35, 136 83.25 M136 83.25 C138.86 101.79, 130.24 113.38, 108.25 111 M136 83.25 C138.76 98.97, 129.51 109.91, 108.25 111 M108.25 111 C81.81 108.42, 53.96 111.2, 27.75 111 M108.25 111 C79.05 111.52, 46.42 109.29, 27.75 111 M27.75 111 C11 108.98, 0.9 103.58, 0 83.25 M27.75 111 C6.88 113.77, 2.12 105.39, 0 83.25 M0 83.25 C1.57 62.48, -0.61 37.32, 0 27.75 M0 83.25 C-1.34 68.04, -0.95 56.54, 0 27.75 M0 27.75 C-1.04 6.19, 5.97 0.94, 27.75 0 M0 27.75 C0.24 10.86, 10.91 -3.57, 27.75 0" stroke="#1e1e1e" stroke-width="1" fill="none"></path></g><g transform="translate(566.6628265380859 316.14288330078125) rotate(0 50.47996520996094 20)"><text x="50.47996520996094" y="0" font-family="Virgil, Segoe UI Emoji" font-size="16px" fill="#1e1e1e" text-anchor="middle" style="white-space: pre;" direction="ltr" dominant-baseline="text-before-edge">Lightsteamer</text><text x="50.47996520996094" y="20" font-family="Virgil, Segoe UI Emoji" font-size="16px" fill="#1e1e1e" text-anchor="middle" style="white-space: pre;" direction="ltr" dominant-baseline="text-before-edge">Server Pod</text></g><g stroke-linecap="round"><g transform="translate(876.2997773461018 190.53848680648343) rotate(0 22.98904189337179 -20.75469555042963)"><path d="M2.37 2.66 C10.06 -4.38, 38.79 -37.12, 45.77 -44.17 M0.21 1.64 C7.8 -4.92, 37.82 -34.03, 44.97 -41.6" stroke="#1e1e1e" stroke-width="1" fill="none"></path></g><g transform="translate(876.2997773461018 190.53848680648343) rotate(0 22.98904189337179 -20.75469555042963)"><path d="M36.15 -10.6 C33.56 -20.73, 43.65 -27.18, 45.98 -38.92 M30.54 -13.47 C37.29 -21.18, 37.64 -27.28, 46.77 -43.47" stroke="#1e1e1e" stroke-width="1" fill="none"></path></g><g transform="translate(876.2997773461018 190.53848680648343) rotate(0 22.98904189337179 -20.75469555042963)"><path d="M21.61 -25.08 C22.98 -31.32, 37.22 -33.63, 45.98 -38.92 M16 -27.95 C25.62 -32.38, 29.12 -35.35, 46.77 -43.47" stroke="#1e1e1e" stroke-width="1" fill="none"></path></g></g><mask></mask><g stroke-linecap="round"><g transform="translate(887.442416506258 219.39566454085843) rotate(0 17.30749349814039 20.451767904979135)"><path d="M1.67 -2.6 C7.22 4.73, 30.23 36.34, 35.49 43.51 M-0.87 2.15 C4.19 8.69, 28.5 32.41, 33.76 39.13" stroke="#1e1e1e" stroke-width="1" fill="none"></path></g><g transform="translate(887.442416506258 219.39566454085843) rotate(0 17.30749349814039 20.451767904979135)"><path d="M5.84 27.77 C20.32 29.04, 25.02 37.72, 33.75 42.68 M8.34 26.71 C15.95 31.11, 21.63 34.38, 33.56 38.48" stroke="#1e1e1e" stroke-width="1" fill="none"></path></g><g transform="translate(887.442416506258 219.39566454085843) rotate(0 17.30749349814039 20.451767904979135)"><path d="M19.66 15.18 C28.87 21.38, 28.34 34.82, 33.75 42.68 M22.16 14.13 C26.06 21.94, 28.21 28.42, 33.56 38.48" stroke="#1e1e1e" stroke-width="1" fill="none"></path></g></g><mask></mask><g stroke-linecap="round" transform="translate(171.99981689453125 167.14285278320312) rotate(0 51.71427917480469 46.57147216796875)"><path d="M25.95 3.79 L85.32 -1.75 L95.65 5.56 L99.89 15.37 L100.62 20.62 L100.46 78.82 L95.47 89.31 L92.2 88.19 L82.89 90.28 L15.83 93.03 L5.29 83.63 L-0.25 73.12 L-3.05 16.91 L8.37 2.08 L16.7 4.53 L22.26 -1.21" stroke="none" stroke-width="0" fill="#ffc9c9"></path><path d="M23.29 0 M23.29 0 C45.18 1.16, 69.46 -0.74, 80.14 0 M23.29 0 C41.14 0.37, 61.24 -1.18, 80.14 0 M80.14 0 C97.03 -0.69, 104.78 7.12, 103.43 23.29 M80.14 0 C99.01 4.58, 103.18 3.97, 103.43 23.29 M103.43 23.29 C99.25 34.77, 104.93 53.33, 103.43 69.86 M103.43 23.29 C105.68 32.72, 104.51 43.64, 103.43 69.86 M103.43 69.86 C106.24 83.77, 95.33 95.83, 80.14 93.14 M103.43 69.86 C105.63 83.15, 99.09 94.55, 80.14 93.14 M80.14 93.14 C64.61 93.6, 50.75 95.98, 23.29 93.14 M80.14 93.14 C63.36 94.48, 49.15 91.76, 23.29 93.14 M23.29 93.14 C11.41 94.72, 0.84 84.56, 0 69.86 M23.29 93.14 C8.9 92.68, -2.01 82.61, 0 69.86 M0 69.86 C-0.83 48.26, -1.7 28.68, 0 23.29 M0 69.86 C-2.76 58.14, -0.18 48.81, 0 23.29 M0 23.29 C2 3.95, 7.51 1.73, 23.29 0 M0 23.29 C0.08 3.94, 11.27 -1.49, 23.29 0" stroke="#1e1e1e" stroke-width="1" fill="none"></path></g><g transform="translate(195.1061248779297 203.71432495117188) rotate(0 28.60797119140625 10)"><text x="28.60797119140625" y="0" font-family="Virgil, Segoe UI Emoji" font-size="16px" fill="#1e1e1e" text-anchor="middle" style="white-space: pre;" direction="ltr" dominant-baseline="text-before-edge">Ingress</text></g><g stroke-linecap="round"><g transform="translate(287.9998474121094 214.8417093669359) rotate(0 10.083323203726962 -0.02875404303671303)"><path d="M-0.54 1.97 C3.75 1.44, 19.78 -1.62, 24.45 -2.02 M-4.28 0.57 C-0.34 0.4, 16.44 2.45, 21.6 1.48" stroke="#1e1e1e" stroke-width="1" fill="none"></path></g><g transform="translate(287.9998474121094 214.8417093669359) rotate(0 10.083323203726962 -0.02875404303671303)"><path d="M11.48 5.16 C12.44 6.77, 16.9 2.61, 23.51 2.26 M9.29 6.49 C12.34 6.17, 15.37 3.01, 21.49 1.02" stroke="#1e1e1e" stroke-width="1" fill="none"></path></g><g transform="translate(287.9998474121094 214.8417093669359) rotate(0 10.083323203726962 -0.02875404303671303)"><path d="M11.24 -3.6 C12.33 0.22, 16.85 -1.72, 23.51 2.26 M9.04 -2.27 C12.31 -0.39, 15.4 -1.34, 21.49 1.02" stroke="#1e1e1e" stroke-width="1" fill="none"></path></g></g><mask></mask><g stroke-linecap="round" transform="translate(10.857147216796875 95.71432495117188) rotate(0 42 35)"><path d="M21.08 1.77 L68.1 -0.96 L82.93 7.82 L85.77 16.07 L87.32 60.03 L83.19 67.31 L69.12 71.23 L15.41 71.84 L5.83 66.01 L1.46 60.55 L0.42 9.9 L0.54 8.16 L8.5 -0.3 L20.13 -1.56" stroke="none" stroke-width="0" fill="#ffec99"></path><path d="M17.5 0 M17.5 0 C29.65 -0.69, 46.31 2.74, 66.5 0 M17.5 0 C35.74 0.37, 53.36 -1.15, 66.5 0 M66.5 0 C75.18 -3.46, 85.15 5.15, 84 17.5 M66.5 0 C80.18 -0.48, 82.23 6.34, 84 17.5 M84 17.5 C81.46 29.94, 80.9 42.21, 84 52.5 M84 17.5 C85.33 25.74, 82.22 36.5, 84 52.5 M84 52.5 C81.71 67.93, 80.34 72.51, 66.5 70 M84 52.5 C82.16 63.73, 81.66 74.59, 66.5 70 M66.5 70 C49.04 70.66, 31.04 74, 17.5 70 M66.5 70 C49.67 71.03, 31.12 72.51, 17.5 70 M17.5 70 C6.74 66.81, 2.82 61.04, 0 52.5 M17.5 70 C1.96 65.72, -3.31 62.54, 0 52.5 M0 52.5 C-2.75 44.69, -3.68 31.07, 0 17.5 M0 52.5 C1.47 44.63, 1.08 31.74, 0 17.5 M0 17.5 C-1.25 2.1, 4.19 -3.81, 17.5 0 M0 17.5 C-0.92 3.71, 5.08 1.45, 17.5 0" stroke="#1e1e1e" stroke-width="1" fill="none"></path></g><g transform="translate(21.1851806640625 110.71432495117188) rotate(0 31.671966552734375 20)"><text x="31.671966552734375" y="0" font-family="Virgil, Segoe UI Emoji" font-size="16px" fill="#1e1e1e" text-anchor="middle" style="white-space: pre;" direction="ltr" dominant-baseline="text-before-edge">Node.js </text><text x="31.671966552734375" y="20" font-family="Virgil, Segoe UI Emoji" font-size="16px" fill="#1e1e1e" text-anchor="middle" style="white-space: pre;" direction="ltr" dominant-baseline="text-before-edge">Client</text></g><g stroke-linecap="round" transform="translate(10 180.00006103515625) rotate(0 42 35)"><path d="M16.82 -0.03 L69.8 -1.67 L78.35 2.39 L84.63 15.97 L82.67 55.77 L80.78 62.51 L64.79 71.26 L16.46 68.41 L8.37 65.8 L3.84 53.87 L-3.45 15.26 L1.29 8.97 L3.07 4.81 L21.44 2.81" stroke="none" stroke-width="0" fill="#ffec99"></path><path d="M17.5 0 M17.5 0 C26.61 -3.82, 39.92 -1.44, 66.5 0 M17.5 0 C33.52 -2.79, 52.29 -2.55, 66.5 0 M66.5 0 C77.78 0.87, 80.38 5.34, 84 17.5 M66.5 0 C77.27 -2.25, 87 6.46, 84 17.5 M84 17.5 C81.81 29.23, 85.17 37.29, 84 52.5 M84 17.5 C83.17 27.25, 84.33 32.84, 84 52.5 M84 52.5 C84.67 62.75, 80.24 70.64, 66.5 70 M84 52.5 C83.57 60.27, 82.69 69.15, 66.5 70 M66.5 70 C56.73 68.3, 43.69 67.74, 17.5 70 M66.5 70 C57.07 67.85, 45.64 70.64, 17.5 70 M17.5 70 C1.85 72.15, 1.62 68.01, 0 52.5 M17.5 70 C6.57 66.81, -3.48 60.23, 0 52.5 M0 52.5 C0.36 46.04, 0.34 35.88, 0 17.5 M0 52.5 C-0.76 41.64, 0.83 29.27, 0 17.5 M0 17.5 C3.14 5.1, 3.55 1.92, 17.5 0 M0 17.5 C-1.62 9.69, 5.87 0.34, 17.5 0" stroke="#1e1e1e" stroke-width="1" fill="none"></path></g><g transform="translate(20.328033447265625 195.00006103515625) rotate(0 31.671966552734375 20)"><text x="31.671966552734375" y="0" font-family="Virgil, Segoe UI Emoji" font-size="16px" fill="#1e1e1e" text-anchor="middle" style="white-space: pre;" direction="ltr" dominant-baseline="text-before-edge">Node.js </text><text x="31.671966552734375" y="20" font-family="Virgil, Segoe UI Emoji" font-size="16px" fill="#1e1e1e" text-anchor="middle" style="white-space: pre;" direction="ltr" dominant-baseline="text-before-edge">Client</text></g><g stroke-linecap="round" transform="translate(13.714202880859375 264.28558349609375) rotate(0 42 35)"><path d="M17.06 3.62 L68 -3.53 L79.9 1.04 L83.62 18.37 L80.11 56.11 L78.85 63.67 L69.11 70.55 L14.33 67.35 L3.03 63.85 L0.69 58.19 L-2.58 10.46 L-1.29 6.84 L6.49 6.1 L19.48 -1.04" stroke="none" stroke-width="0" fill="#ffec99"></path><path d="M17.5 0 M17.5 0 C33.65 -0.88, 45.14 3.42, 66.5 0 M17.5 0 C32.25 -0.04, 44.01 -1.1, 66.5 0 M66.5 0 C75.44 -3.38, 84.64 4.94, 84 17.5 M66.5 0 C80.76 -4.45, 84.61 7.8, 84 17.5 M84 17.5 C88.22 25.16, 81.6 28.5, 84 52.5 M84 17.5 C81.8 25.53, 84.28 33.03, 84 52.5 M84 52.5 C83.42 64.64, 74.9 69.18, 66.5 70 M84 52.5 C80.93 64.28, 78.77 66.77, 66.5 70 M66.5 70 C49.87 68.03, 32.76 69.48, 17.5 70 M66.5 70 C52.51 72.59, 37.44 70.03, 17.5 70 M17.5 70 C7.44 71.97, -1.6 66.19, 0 52.5 M17.5 70 C9.27 73.95, 0.8 60.67, 0 52.5 M0 52.5 C-1.79 44.26, 2.94 37.49, 0 17.5 M0 52.5 C-2.29 44.48, -0.17 35.4, 0 17.5 M0 17.5 C-3.04 2.63, 8.6 1.62, 17.5 0 M0 17.5 C-3.78 1.31, 9.59 -3.97, 17.5 0" stroke="#1e1e1e" stroke-width="1" fill="none"></path></g><g transform="translate(24.042236328125 279.28558349609375) rotate(0 31.671966552734375 20)"><text x="31.671966552734375" y="0" font-family="Virgil, Segoe UI Emoji" font-size="16px" fill="#1e1e1e" text-anchor="middle" style="white-space: pre;" direction="ltr" dominant-baseline="text-before-edge">Node.js </text><text x="31.671966552734375" y="20" font-family="Virgil, Segoe UI Emoji" font-size="16px" fill="#1e1e1e" text-anchor="middle" style="white-space: pre;" direction="ltr" dominant-baseline="text-before-edge">Client</text></g><g stroke-linecap="round"><g transform="translate(108.57135009765625 133.1188449997154) rotate(0 29.62156131893397 40.087766714803024)"><path d="M1.33 0.8 C10.87 13.53, 46.16 65.54, 55.05 78.16 M-1.39 -1.24 C9.27 11.76, 50.32 68.16, 60.63 81.41" stroke="#1e1e1e" stroke-width="1" fill="none"></path></g><g transform="translate(108.57135009765625 133.1188449997154) rotate(0 29.62156131893397 40.087766714803024)"><path d="M36.65 62.84 C40.32 65.7, 43.52 72.72, 59.74 83.67 M33.52 66.09 C41.47 70.05, 46.08 70.07, 59.12 79.7" stroke="#1e1e1e" stroke-width="1" fill="none"></path></g><g transform="translate(108.57135009765625 133.1188449997154) rotate(0 29.62156131893397 40.087766714803024)"><path d="M53.07 50.53 C53.24 56.29, 52.78 66.05, 59.74 83.67 M49.94 53.78 C54.58 60.39, 55.86 62.91, 59.12 79.7" stroke="#1e1e1e" stroke-width="1" fill="none"></path></g></g><mask></mask><g stroke-linecap="round"><g transform="translate(103.42849731445312 218.89369392139395) rotate(0 31.09815956093371 -0.5066902575070458)"><path d="M-1.77 1.26 C8.43 1.25, 52.89 -1.83, 63.97 -2.28 M2.46 -0.52 C11.98 -0.01, 51.32 0.13, 61.41 0.43" stroke="#1e1e1e" stroke-width="1" fill="none"></path></g><g transform="translate(103.42849731445312 218.89369392139395) rotate(0 31.09815956093371 -0.5066902575070458)"><path d="M34.86 9.39 C42.08 6.91, 54.65 1.89, 64.95 4 M34.73 10.26 C42.17 6.64, 49.48 5.62, 62.88 0.23" stroke="#1e1e1e" stroke-width="1" fill="none"></path></g><g transform="translate(103.42849731445312 218.89369392139395) rotate(0 31.09815956093371 -0.5066902575070458)"><path d="M35.18 -11.13 C41.95 -5.43, 54.4 -2.26, 64.95 4 M35.05 -10.26 C42.05 -7.32, 49.26 -1.78, 62.88 0.23" stroke="#1e1e1e" stroke-width="1" fill="none"></path></g></g><mask></mask><g stroke-linecap="round"><g transform="translate(109.14270019531256 302.94646825308337) rotate(0 28.857784547917532 -34.24716670593551)"><path d="M2.04 2.06 C11.87 -9.26, 48.41 -58.44, 58.01 -70.56 M-0.29 0.71 C9.22 -9.89, 45.81 -55.53, 55.61 -66.91" stroke="#1e1e1e" stroke-width="1" fill="none"></path></g><g transform="translate(109.14270019531256 302.94646825308337) rotate(0 28.857784547917532 -34.24716670593551)"><path d="M48.47 -39.06 C48.78 -44.42, 51.35 -56.51, 56.9 -63.35 M45.73 -38.38 C49.26 -47.72, 52.76 -61.1, 55.95 -65.8" stroke="#1e1e1e" stroke-width="1" fill="none"></path></g><g transform="translate(109.14270019531256 302.94646825308337) rotate(0 28.857784547917532 -34.24716670593551)"><path d="M32.67 -52.16 C36.95 -54.25, 43.74 -62.84, 56.9 -63.35 M29.93 -51.48 C39.5 -55.79, 49.04 -64.16, 55.95 -65.8" stroke="#1e1e1e" stroke-width="1" fill="none"></path></g></g><mask></mask></svg>